<?xml version="1.0" standalone="no"?><!DOCTYPE svg PUBLIC "-//W3C//DTD SVG 1.1//EN" "http://www.w3.org/Graphics/SVG/1.1/DTD/svg11.dtd"><svg t="1543993922521" class="icon" style="" viewBox="0 0 1024 1024" version="1.1" xmlns="http://www.w3.org/2000/svg" p-id="12972" xmlns:xlink="http://www.w3.org/1999/xlink" width="200" height="200"><defs><style type="text/css"></style></defs><path d="M962.8 571.4c7.6-33.2 11.6-67.8 11.6-103.2 0-35.8-4.2-70.4-11.8-103.8 0 1.2 0.2 2.4 0.2 3.8L962.8 571.4z" p-id="12973" fill="#ffffff"></path><path d="M904.4 680.2c-11.6 5-24.2 7.6-37.6 7.6l-85.2 0c-13.4 0-25.8-2.6-37.6-7.6-11.6-5-21.8-11.8-30.4-20.4-4-4-7.6-8.4-11-13.2l104-151.6 0 54.2c0 5 1.6 9.2 5 12.6 3.4 3.4 7.6 5 12.6 5 5 0 9.2-1.6 12.6-5 3.4-3.4 5-7.6 5-12.6l0-105.4 96.2-140.2c5 5.6 9.2 11.8 12.8 18.4C889.6 138.2 716.4 5.6 512 5.6 256.6 5.6 49.4 212.6 49.4 468.2c0 6.2 0.2 12.6 0.4 18.8l173.2-214.8L326 272.2 174.6 497.4l48.4 0 0-56.2 103.4-158.8 0 215 0 104.4 0 86-103.4 0 0-86-154 0c46.6 154.4 171.4 274.8 328.6 314.6-10.4 26.2-40.6 89.4-90.8 100.8-62.2 14 169 3.4 333.8-104.8C770 875 876 782.6 931.8 662.2 923.8 669.6 914.8 675.8 904.4 680.2zM375.2 629.2c-5-11.6-7.6-24.2-7.6-37.6L367.6 368.2c0-13.4 2.6-25.8 7.6-37.6 5-11.6 11.8-21.8 20.4-30.4 8.6-8.6 18.8-15.4 30.4-20.4 11.6-5 24.2-7.6 37.6-7.6l85.2 0c13.4 0 25.8 2.6 37.6 7.6 11.2 4.8 21 11.4 29.4 19.4l-92 134.2 0-22.6c0-5-1.6-9.2-5-12.6-3.4-3.4-7.6-5-12.6-5-5 0-9.2 1.6-12.6 5-3.4 3.4-5 7.6-5 12.6l0 73.8-107.4 156.6C379 637.4 377 633.4 375.2 629.2zM644.6 591.8c0 13.4-2.6 25.8-7.6 37.6-5 11.6-11.8 21.8-20.4 30.4-8.6 8.6-18.8 15.4-30.4 20.4-11.6 5-24.2 7.6-37.6 7.6l-85.2 0c-13.4 0-25.8-2.6-37.6-7.6-11.6-5-21.8-11.8-30.4-20.4-4-4-7.6-8.4-11-13.2l104-151.6 0 54.2c0 5 1.6 9.2 5 12.6 3.4 3.4 7.6 5 12.6 5 5 0 9.2-1.6 12.6-5 3.4-3.4 5-7.6 5-12.6l0-105.4 96.2-140.2c7.2 7.8 13 16.8 17.4 27 5 11.6 7.6 24.2 7.6 37.6L644.8 591.8zM693.4 629.2c-5-11.6-7.6-24.2-7.6-37.6L685.8 368.2c0-13.4 2.6-25.8 7.6-37.6 5-11.6 11.8-21.8 20.4-30.4 8.6-8.6 18.8-15.4 30.4-20.4 11.6-5 24.2-7.6 37.6-7.6l85.2 0c13.4 0 25.8 2.6 37.6 7.6 11.2 4.8 21 11.4 29.4 19.4l-92 134.2 0-22.6c0-5-1.6-9.2-5-12.6-3.4-3.4-7.6-5-12.6-5-5 0-9.2 1.6-12.6 5-3.4 3.4-5 7.6-5 12.6l0 73.8-107.4 156.6C697.2 637.4 695.2 633.4 693.4 629.2z" p-id="12974" fill="#ffffff"></path></svg>