<?xml version="1.0" standalone="no"?><!DOCTYPE svg PUBLIC "-//W3C//DTD SVG 1.1//EN" "http://www.w3.org/Graphics/SVG/1.1/DTD/svg11.dtd"><svg t="1543993956523" class="icon" style="" viewBox="0 0 1024 1024" version="1.1" xmlns="http://www.w3.org/2000/svg" p-id="13143" xmlns:xlink="http://www.w3.org/1999/xlink" width="200" height="200"><defs><style type="text/css"></style></defs><path d="M907.5 617.459h-158.208c-14.576 0-26.375-11.799-26.375-26.374 0-14.535 11.799-26.334 26.375-26.334h158.208c14.575 0 26.375 11.799 26.375 26.334 0 14.575-11.8 26.374-26.375 26.374v0zM907.5 459.25h-210.917c-14.575 0-26.374-11.799-26.374-26.333 0-14.575 11.799-26.375 26.374-26.375h210.917c14.575 0 26.375 11.799 26.375 26.375 0 14.534-11.8 26.333-26.375 26.333v0zM907.5 301.083h-210.917c-14.575 0-26.374-11.799-26.374-26.374 0-14.576 11.799-26.375 26.374-26.375h210.917c14.575 0 26.375 11.798 26.375 26.375 0 14.575-11.8 26.374-26.375 26.374v0zM670.209 670.209v105.458c0 87.373-70.837 158.21-158.209 158.21h-263.665c-87.373 0-158.21-70.837-158.21-158.21v-105.458c0-69.285 44.789-127.505 106.766-148.941-33.724-45.523-54.016-103.867-54.016-167.477 0-145.593 106.235-263.666 237.292-263.666 131.057 0 237.292 118.075 237.292 263.666 0 63.61-20.291 121.954-54.016 167.477 61.976 21.435 106.765 79.656 106.765 148.941v0zM564.75 353.791c0-116.483-82.637-210.917-184.583-210.917-101.948 0-184.583 94.436-184.583 210.917 0 116.523 82.637 210.958 184.583 210.958 101.946 0 184.582-94.435 184.582-210.958v0zM617.459 683.396c0-56.057-42.543-102.763-99.539-115.176-38.869 30.865-86.351 49.238-137.752 49.238-51.403 0-98.885-18.372-137.753-49.238-56.995 12.412-99.538 59.119-99.538 115.176v79.083c0 65.529 57.935 118.646 129.424 118.646h215.734c71.489 0 129.425-53.117 129.425-118.645v-79.083zM749.292 722.917h158.208c14.575 0 26.375 11.799 26.375 26.375s-11.8 26.374-26.375 26.374h-158.208c-14.576 0-26.375-11.799-26.375-26.374 0-14.576 11.799-26.375 26.375-26.375v0z" p-id="13144" fill="#ffffff"></path></svg>