<?xml version="1.0" standalone="no"?><!DOCTYPE svg PUBLIC "-//W3C//DTD SVG 1.1//EN" "http://www.w3.org/Graphics/SVG/1.1/DTD/svg11.dtd"><svg class="icon" width="48px" height="47.72px" viewBox="0 0 1030 1024" version="1.1" xmlns="http://www.w3.org/2000/svg"><path d="M1028.896135 416.879313a32.208307 32.208307 0 0 1-30.43862 21.826142h-141.574976v520.877931a64.475603 64.475603 0 0 1-64.416614 64.416614H236.489199a64.475603 64.475603 0 0 1-64.357625-64.416614V438.882424H32.208307a32.208307 32.208307 0 0 1-19.702517-57.396855L494.68656 6.724811a32.326286 32.326286 0 0 1 39.464025 0l484.186416 374.760758a32.090328 32.090328 0 0 1 10.559134 35.393744z m-514.448068-343.909211L126.237687 374.46581h78.043205a32.149317 32.149317 0 0 1 32.149317 32.208307v552.909269h555.858748V406.674117a32.149317 32.149317 0 0 1 32.208307-32.208307h79.635923L514.448067 72.970102z"  /><path d="M661.037157 622.929892a32.208307 32.208307 0 1 0 0-64.416614H582.227087l87.304568-103.998617a32.208307 32.208307 0 1 0-49.315283-41.292701l-102.641857 122.226395-102.641858-122.403364a32.208307 32.208307 0 1 0-49.315283 41.292701l87.245579 104.116597H369.451697a32.208307 32.208307 0 0 0 0 64.416614H483.124604v48.902356H369.451697a32.208307 32.208307 0 0 0 0 64.416614H483.124604v87.717495a32.149317 32.149317 0 0 0 32.149317 32.267296 32.208307 32.208307 0 0 0 32.208307-32.149317V736.189873h113.495939a32.208307 32.208307 0 1 0 0-64.416614H547.482228v-48.902356z"  /></svg>
