<?xml version="1.0" encoding="UTF-8"?>
<svg width="56px" height="68px" viewBox="0 0 56 68" version="1.1" xmlns="http://www.w3.org/2000/svg" xmlns:xlink="http://www.w3.org/1999/xlink">
    <!-- Generator: Sketch 51.2 (57519) - http://www.bohemiancoding.com/sketch -->
    <title>chefeiyg_zhong copy 15</title>
    <desc>Created with Sketch.</desc>
    <defs>
        <filter x="-17.7%" y="-10.7%" width="135.4%" height="127.9%" filterUnits="objectBoundingBox" id="filter-1">
            <feMorphology radius="1.5" operator="dilate" in="SourceAlpha" result="shadowSpreadOuter1"></feMorphology>
            <feOffset dx="0" dy="2" in="shadowSpreadOuter1" result="shadowOffsetOuter1"></feOffset>
            <feGaussianBlur stdDeviation="2" in="shadowOffsetOuter1" result="shadowBlurOuter1"></feGaussianBlur>
            <feComposite in="shadowBlurOuter1" in2="SourceAlpha" operator="out" result="shadowBlurOuter1"></feComposite>
            <feColorMatrix values="0 0 0 0 0   0 0 0 0 0   0 0 0 0 0  0 0 0 0.5 0" type="matrix" in="shadowBlurOuter1" result="shadowMatrixOuter1"></feColorMatrix>
            <feMerge>
                <feMergeNode in="shadowMatrixOuter1"></feMergeNode>
                <feMergeNode in="SourceGraphic"></feMergeNode>
            </feMerge>
        </filter>
    </defs>
    <g id="登录、在途监控" stroke="none" stroke-width="1" fill="none" fill-rule="evenodd">
        <g id="01企业货主网-02在途监控" transform="translate(-1140.000000, -579.000000)">
            <g id="chefeiyg_zhong-copy-15" filter="url(#filter-1)" transform="translate(1144.000000, 581.000000)">
                <path d="M24,60.1313892 C40,48.6454263 48,36.6016299 48,24 C48,10.745166 37.254834,0 24,0 C10.745166,0 6.47880858e-16,10.745166 0,24 C0,36.0452473 8,48.0890437 24,60.1313892 Z" id="Oval" fill="#CCCCCC"></path>
                <circle id="Oval-2" fill="#FFFFFF" cx="24" cy="23" r="20"></circle>
                <g id="卡车" transform="translate(10.000000, 13.000000)" fill="#CCCCCC" fill-rule="nonzero">
                    <path d="M0.0150898204,0.59493014 L0.0150618762,13.4869461 L19.313992,13.4869461 L19.3306467,0.59493014 C19.3306467,0.272259481 19.0707385,0.0107025948 18.7508623,0.0107025948 L0.593616766,0.0107025948 C0.273852295,0.0107025948 0.0150339321,0.272287425 0.0150618762,0.59493014 L0.0150898204,0.59493014 Z" id="Shape"></path>
                    <path d="M10.6228423,17.7194172 L19.1310699,17.7194172 C19.1305669,17.6958323 19.1277725,17.6723034 19.1277725,17.6476846 C19.1277725,17.4739561 19.2316687,16.7401996 19.2878084,16.5508224 C19.501022,15.8293892 20.4614611,13.7948623 22.9480679,13.7948623 C25.4810619,13.7948623 26.3955888,15.8293613 26.6088303,16.5508224 C26.6643273,16.7402275 26.7683074,17.473984 26.7683074,17.6476846 C26.7683074,17.6723034 26.765485,17.6958323 26.7643952,17.7194172 L27.3986427,17.7194172 C27.718491,17.7194172 27.9778124,17.4583633 27.9778124,17.1356926 L27.9778124,14.1344391 C27.9778124,13.986 27.9196048,13.8509182 27.8296527,13.7478603 L27.8296527,9.38273852 C27.8296527,6.00619561 25.6215369,4.26077844 25.5271697,4.18795609 C25.4256208,4.1096008 25.3022754,4.0676008 25.1751297,4.0676008 L20.5163992,4.0676008 C20.3447944,4.0676008 20.1926667,4.14436327 20.0865908,4.26421557 L20.0865908,13.8768782 C20.0865908,14.1125589 19.9341836,14.2655808 19.7006267,14.2655808 L8.63386427,14.2655808 C10.4929022,14.9846667 10.6218363,16.8868224 10.6229541,17.7194172 L10.6228423,17.7194172 Z M21.0955689,8.65518563 L21.0955689,5.23605589 L24.9606866,5.23605589 C25.3460639,5.59287425 26.4016806,6.73724152 26.6261277,8.65518563 L21.0955689,8.65518563 Z" id="Shape"></path>
                    <path d="M1.1919002,14.1171138 C1.1919002,14.1227305 1.1902515,17.1358603 1.1902515,17.1358603 C1.1902515,17.4585868 1.44895808,17.7195848 1.76880639,17.7195848 L2.99057884,17.7195848 C2.76017964,15.9183633 4.38742116,14.2752495 5.2839521,14.1171697 C4.55304591,14.1171417 1.1919002,14.1171417 1.1919002,14.1171417 L1.1919002,14.1171138 Z" id="Shape"></path>
                    <path d="M22.9481238,14.5740838 C24.6460918,14.5740838 26.0225629,15.9506108 26.0225629,17.6485509 C26.0225629,19.3464631 24.6460639,20.7229621 22.9481238,20.7229621 C21.2501836,20.7229621 19.8737126,19.3464351 19.8737126,17.6485509 C19.8737126,15.9505828 21.2501836,14.5740838 22.9481238,14.5740838 Z M21.5276407,17.6485788 C21.5276407,18.4330539 22.1636208,19.068978 22.9481238,19.068978 C23.7326267,19.068978 24.3685509,18.4330259 24.3685509,17.6485788 C24.3685509,16.8640479 23.7325988,16.2281238 22.9481238,16.2281238 C22.1635928,16.2281238 21.5276407,16.8640479 21.5276407,17.6485788 Z" id="Shape"></path>
                    <path d="M6.83373253,14.5740838 C8.5317006,14.5740838 9.90814371,15.9506108 9.90814371,17.6485509 C9.90814371,19.3464631 8.53167265,20.7229621 6.83373253,20.7229621 C5.13579242,20.7229621 3.75929341,19.3464351 3.75929341,17.6485509 C3.75929341,15.9505828 5.13579242,14.5740838 6.83373253,14.5740838 Z M5.41322156,17.6485788 C5.41322156,18.4330539 6.04917365,19.068978 6.83367665,19.068978 C7.61817964,19.068978 8.25413174,18.4330259 8.25413174,17.6485788 C8.25413174,16.8640479 7.61817964,16.2281238 6.83367665,16.2281238 C6.04917365,16.2281238 5.41322156,16.8640479 5.41322156,17.6485788 Z" id="Shape"></path>
                </g>
            </g>
        </g>
    </g>
</svg>