<?xml version="1.0" standalone="no"?><!DOCTYPE svg PUBLIC "-//W3C//DTD SVG 1.1//EN" "http://www.w3.org/Graphics/SVG/1.1/DTD/svg11.dtd"><svg class="icon" width="48px" height="48.00px" viewBox="0 0 1024 1024" version="1.1" xmlns="http://www.w3.org/2000/svg"><path d="M955.328 687.936l-42.624 13.28c1.184 9.248 2.528 18.176 2.528 27.744 0 9.376-1.408 18.528-2.88 27.52l42.976 13.472c10.112 2.944 18.592 9.728 23.552 18.912a38.4 38.4 0 0 1 2.528 30.048c-6.976 20.48-29.696 31.488-51.04 24.96l-43.52-13.536a217.6 217.6 0 0 1-33.504 45.024l26.56 35.072c6.272 8.256 8.896 18.784 7.264 29.056a37.952 37.952 0 0 1-16.32 25.184 41.504 41.504 0 0 1-56.512-8.576l-26.72-35.296a224 224 0 0 1-54.848 17.792v42.784c0 21.408-18.08 38.912-40.416 38.912-22.496 0-40.608-17.408-40.608-38.912v-42.784a224.832 224.832 0 0 1-54.912-17.792l-26.592 35.296a41.728 41.728 0 0 1-56.576 8.576 37.696 37.696 0 0 1-8.992-54.24l26.848-35.424a207.968 207.968 0 0 1-34.624-44.384l-42.592 13.312c-21.376 6.688-44.16-4.544-51.04-24.992a38.208 38.208 0 0 1 2.624-30.016c4.896-9.184 13.28-16.032 23.328-19.008l42.688-13.216c-1.12-9.184-2.56-18.272-2.56-27.744 0-9.536 1.536-18.528 2.912-27.68l-43.072-13.344c-21.376-6.688-32.896-28.64-25.952-49.056 6.88-20.352 29.664-31.456 51.04-24.896l43.488 13.568a218.048 218.048 0 0 1 33.6-45.12l-26.624-35.008a37.856 37.856 0 0 1 8.928-54.24 41.504 41.504 0 0 1 56.608 8.608l26.656 35.264a225.408 225.408 0 0 1 54.912-17.824V476.48c0-21.472 18.08-38.912 40.48-38.912s40.544 17.344 40.544 38.912v42.72a225.504 225.504 0 0 1 54.848 17.792l26.656-35.296a41.76 41.76 0 0 1 56.576-8.608c18.144 12.64 22.112 36.896 8.992 54.304l-26.88 35.328c13.312 13.472 25.376 28.096 34.688 44.352l42.592-13.216c21.344-6.56 44.064 4.608 51.04 24.992 7.04 20.48-4.672 42.432-26.048 49.088z m-262.944-94.944c-78.24 0-141.888 60.928-141.888 136 0 75.136 63.616 135.968 141.888 135.968 78.368 0 141.792-60.832 141.792-135.968-0.032-75.04-63.424-136-141.792-136z"  /><path d="M799.968 696h-19.104l-0.192 0.192a20.032 20.032 0 0 1 10.4 17.696l0.448 70.528h-198.112v-70.528a20.16 20.16 0 0 1 10.528-17.504h-19.232a10.304 10.304 0 0 1-10.432-10.176v-10.112c0-5.632 4.672-10.176 10.432-10.176h10.4v20.32h8.832v-43.456c0-11.2 9.28-20.352 20.832-20.352h135.616c11.552 0 20.896 9.152 20.896 20.352l-0.384 43.104h8.672V665.6h10.368c5.824 0 10.464 4.576 10.464 10.176v10.08a10.24 10.24 0 0 1-10.432 10.144z m-143.904 78.88h73.056v-10.144h-73.056v10.144z m0-20.288h73.056v-10.208h-73.056v10.208z m0-20.384h73.056v-10.144h-73.056v10.144z m-41.728 30.496a10.24 10.24 0 0 0 10.432 10.144h10.368a10.336 10.336 0 0 0 10.464-10.144 10.24 10.24 0 0 0-10.464-10.112h-10.368a10.208 10.208 0 0 0-10.432 10.112z m146.08-111.808a10.304 10.304 0 0 0-10.432-10.176h-114.816a10.304 10.304 0 0 0-10.368 10.176v50.784h135.616v-50.784z m0 101.696h-10.432a10.24 10.24 0 0 0-10.432 10.112c0 5.6 4.672 10.144 10.432 10.144h10.432a10.336 10.336 0 0 0 10.464-10.144 10.272 10.272 0 0 0-10.464-10.112z m31.296 39.968a10.304 10.304 0 0 1-10.4 10.144h-177.376a10.368 10.368 0 0 1-10.528-10.144v-10.144h198.304v10.144z m-146.08 30.752a10.336 10.336 0 0 1-10.464 10.208h-10.368a10.272 10.272 0 0 1-10.432-10.208v-20.32h31.296v20.32h-0.032z m125.248 0a10.336 10.336 0 0 1-10.464 10.208h-10.432a10.336 10.336 0 0 1-10.432-10.208v-20.32h31.328v20.32zM659.712 95.168h72.288c32.896 0 60.864 26.848 60.864 59.808V463.232h39.808V154.976c0-55.008-45.728-99.68-100.672-99.68h-72.288a19.936 19.936 0 1 0 0 39.872M632.992 171.904h-76.608V74.88A71.168 71.168 0 0 0 485.216 3.648H389.12A71.2 71.2 0 0 0 317.92 74.88v96.992H241.408c-24.736 0-46.848 19.936-46.848 44.672 0 24.736 22.08 46.816 46.848 46.816h391.584c24.576 0 46.816-22.08 46.816-46.816 0-24.736-22.048-44.64-46.816-44.64z m-195.776-33.856a47.264 47.264 0 0 1-47.168-47.168c0-26.016 21.184-47.2 47.168-47.2 25.984 0 47.168 21.184 47.168 47.2 0 25.984-21.216 47.168-47.168 47.168z"  /><path d="M80.416 824.224V159.296c0-33.088 29.024-64.128 61.984-64.128h72.96a19.936 19.936 0 1 0 0-39.904H142.4c-55.008 0-101.856 49.024-101.856 104V824a99.776 99.776 0 0 0 99.648 99.744h347.84v-39.744H140.192a59.936 59.936 0 0 1-59.776-59.776"  /><path d="M692.384 394.432a43.2 43.2 0 0 1-43.168 43.136H237.664a43.136 43.136 0 1 1 0-86.272h411.552a43.2 43.2 0 0 1 43.168 43.136z"  /></svg>