<?xml version="1.0" standalone="no"?><!DOCTYPE svg PUBLIC "-//W3C//DTD SVG 1.1//EN" "http://www.w3.org/Graphics/SVG/1.1/DTD/svg11.dtd"><svg t="1553760331498" class="icon" style="" viewBox="0 0 1024 1024" version="1.1" xmlns="http://www.w3.org/2000/svg" p-id="2207" xmlns:xlink="http://www.w3.org/1999/xlink" width="200" height="200"><defs><style type="text/css"></style></defs><path d="M469.02421 479.471143" p-id="2208" fill="#ffffff"></path><path d="M668.540266 369.281531c-6.817266-25.193799-23.121604-37.595246-47.39852-38.675858-59.169611-2.65855-118.354572-4.773723-177.539532-5.223978-19.487843-0.151449-39.260166 4.458545-58.388828 9.021467-7.880481 1.89414-18.256806 7.898901-20.944008 14.653745-14.112416 35.268248-26.154683 71.405283-40.071647 110.516046 126.880759 26.25906 248.493537 26.876114 373.241726 0C686.960801 427.294806 676.452469 398.61665 668.540266 369.281531z" p-id="2209" fill="#ffffff"></path><path d="M718.29546 533.800515c-29.27679 9.083889-58.343803 19.789719-85.895299 33.152051-12.656251 6.154163-8.121981 23.12058 6.275937 26.272363 11.531638 2.508123 23.676236 2.267647 38.645159 3.499707 13.107529-1.577938 29.352515-2.163269 44.905746-5.780657 21.261233-4.880147 16.770965-22.821775 16.276708-38.015825C738.083132 539.928073 730.007199 530.153452 718.29546 533.800515z" p-id="2210" fill="#ffffff"></path><path d="M386.414747 563.017954c-23.179932-10.750855-46.992267-20.49273-71.284533-28.464285-12.099572-3.979638-25.582655-3.229554-29.486568 14.021342-5.689582 25.222451-0.37453 39.290865 18.49626 43.225477 14.518668 3.016707 29.577642 3.438309 44.410466 4.997827 0.022513-0.348947 0.014326-0.172939 0.005117 0 10.147104 0 20.820188-0.360204 30.472012-2.611477 7.010671-1.635243 15.899108-7.325849 18.120706-13.346983C398.712841 576.560388 391.985626 565.585429 386.414747 563.017954z" p-id="2211" fill="#ffffff"></path><path d="M948.751179 279.992949c0-115.16288-93.358271-208.520127-208.516034-208.520127 0 0-114.863051-10.423397-229.631958-10.423397-114.598015 0-229.101885 10.423397-229.101885 10.423397-115.16288 0-208.520127 93.358271-208.520127 208.520127 0 0-10.423397 114.464985-10.423397 229.054813 0 114.778116 10.423397 229.680053 10.423397 229.680053 0 115.158786 93.358271 208.516034 208.520127 208.516034 0 0 114.692159 10.423397 229.375108 10.423397 114.683972 0 229.358735-10.423397 229.358735-10.423397 115.158786 0 208.516034-93.358271 208.516034-208.516034 0 0 10.423397-114.50387 10.423397-229.105978C959.173552 394.856 948.751179 279.992949 948.751179 279.992949zM795.765879 502.663354c-11.154038 3.091408-22.308075 6.154163-32.56365 8.977465 1.440815 11.590989 4.055362 23.363104 4.114714 35.131125 0.450255 53.689806 0.778736 107.395986-0.301875 161.083745-0.179079 9.578146-5.719258 24.487717-9.578146 26.904767-3.648087 6.275937-84.902692 5.977132-91.223654 1.622964-21.109784-13.709233-8.123005-36.710087-14.894222-55.372122l-276.057313 0c-5.344728 19.742646-8.529257 52.893674-14.969946 55.372122-14.052041 5.40408-89.376587 5.599532-93.580329 0-5.705955-4.040013-9.578146-20.313651-10.329253-30.764678-1.562589-22.60995-0.661056-45.401026-0.434905-68.1174 0.419556-42.174542 1.048889-84.34499 1.604544-126.806057-7.912204-2.070148-19.172665-5.060249-30.432103-8.04728-0.617054-4.03899-1.426489-8.976442 0-14.368242 7.821129-23.240307 19.261693-41.181935 48.583508-37.443797 3.543709 0.450255 10.076496-7.117095 12.011568-12.190647 10.016121-26.243711 20.763906-52.442396 27.926026-79.527265 11.995195-45.538149 44.892443-63.854307 86.884836-71.932286 15.810081-3.015683 31.828916-4.997827 47.729048-7.445576 44.666292-6.29231 81.555457-6.065136 122.393561 0 27.939329 5.91471 56.255235 10.539031 83.731006 18.166755 20.344351 5.644557 35.043121 19.441794 42.308595 40.520879 11.544941 33.30043 23.64656 66.406432 36.377512 99.256608 2.163269 5.495154 9.203616 13.586436 13.153578 13.151531 26.76969-3.01773 39.364543 11.860119 47.546899 33.871435C797.733697 491.446895 796.637736 498.204809 795.765879 502.663354z" p-id="2212" fill="#ffffff"></path></svg>