<?xml version="1.0" standalone="no"?><!DOCTYPE svg PUBLIC "-//W3C//DTD SVG 1.1//EN" "http://www.w3.org/Graphics/SVG/1.1/DTD/svg11.dtd"><svg t="1534934303066" class="icon" style="" viewBox="0 0 1024 1024" version="1.1" xmlns="http://www.w3.org/2000/svg" p-id="2131" xmlns:xlink="http://www.w3.org/1999/xlink" width="200" height="200"><defs><style type="text/css"></style></defs><path d="M512 533.333333a234.666667 234.666667 0 1 1 0-469.333333 234.666667 234.666667 0 0 1 0 469.333333z m0-42.666666a192 192 0 1 0 0-384 192 192 0 0 0 0 384z" fill="#ffffff" p-id="2132"></path><path d="M490.666667 490.666667a21.333333 21.333333 0 1 1 0 42.666666 384 384 0 0 0-381.098667 431.317334 21.333333 21.333333 0 0 1-42.368 5.162666c-2.133333-17.322667-3.2-34.816-3.2-52.48 0-235.648 191.018667-426.666667 426.666667-426.666666z m298.453333 121.728a21.333333 21.333333 0 0 1-29.866667 30.506666A382.592 382.592 0 0 0 490.666667 533.333333a21.333333 21.333333 0 1 1 0-42.666666 425.258667 425.258667 0 0 1 298.453333 121.728z" fill="#ffffff" p-id="2133"></path><path d="M597.333333 768l341.333334 0 0 42.666667-341.333334 0 0-42.666667Z" fill="#ffffff" p-id="2134"></path><path d="M512 938.666667l426.666667 0 0 42.666666-426.666667 0 0-42.666666Z" fill="#ffffff" p-id="2135"></path></svg>