<?xml version="1.0" standalone="no"?><!DOCTYPE svg PUBLIC "-//W3C//DTD SVG 1.1//EN" "http://www.w3.org/Graphics/SVG/1.1/DTD/svg11.dtd"><svg t="1534934171433" class="icon" style="" viewBox="0 0 1024 1024" version="1.1" xmlns="http://www.w3.org/2000/svg" p-id="3453" xmlns:xlink="http://www.w3.org/1999/xlink" width="200" height="200"><defs><style type="text/css"></style></defs><path d="M487.68 872.96c193.28 0 350.08-156.8 350.08-350.08 0-193.28-156.8-350.08-350.08-350.08C294.4 172.8 137.6 329.6 137.6 522.88c0.64 193.28 157.44 350.08 350.08 350.08z m295.04-296.32c-10.88 62.72-40.96 119.04-82.56 161.92-40.32 41.6-92.16 71.04-149.76 83.84 3.2-30.08 6.4-71.68 12.16-106.88 15.36-97.92 45.44-140.16 131.2-156.8 23.68-4.48 49.28-4.48 74.24-4.48 11.52 0 18.56 5.12 14.72 22.4zM220.16 444.8c-15.36 0.64-20.48-6.4-16.64-21.76 14.72-46.08 39.68-87.04 72.32-120.96C330.88 245.76 409.6 217.6 488.32 217.6c78.72 0 157.44 28.16 211.84 84.48 32.64 33.28 57.6 74.88 72.32 120.96 3.84 15.36-1.28 23.04-16.64 21.76H220.16z m-11.52 109.44c24.96-0.64 49.92-0.64 74.24 4.48 85.12 16.64 115.84 58.88 131.2 156.8 5.76 35.2 8.96 76.8 12.16 106.88-57.6-12.8-109.44-42.24-149.76-83.84-42.24-43.52-71.68-99.2-82.56-161.92-4.48-17.28 2.56-22.4 14.72-22.4z" fill="#EEF6FF" p-id="3454"></path><path d="M487.68 885.76c-199.68 0-362.88-162.56-362.88-362.88C124.8 323.2 287.36 160 487.68 160c199.68 0 362.88 162.56 362.88 362.88 0 200.32-162.56 362.88-362.88 362.88z m0-699.52c-185.6 0-337.28 151.04-337.28 337.28 0 185.6 151.04 337.28 337.28 337.28s337.28-151.04 337.28-337.28-151.04-337.28-337.28-337.28zM535.68 838.4l3.2-32.64c2.56-27.52 5.76-62.08 10.24-92.16 16.64-106.24 53.12-150.4 140.8-167.04 26.24-5.12 53.12-5.12 76.8-4.48 10.88 0 18.56 2.56 23.68 8.96 5.76 6.4 7.04 16 3.84 28.16-11.52 64-40.96 122.24-86.4 168.32-42.88 44.16-96.64 74.24-156.16 87.68l-16 3.2zM748.8 567.04c-17.28 0-35.84 0.64-53.12 4.48-76.8 14.72-105.6 50.56-120.96 145.92-4.48 28.16-7.68 61.44-10.24 88.32 47.36-13.44 90.88-39.68 126.08-76.16 41.6-42.88 69.12-96.64 79.36-155.52v-0.64c0.64-3.2 0.64-5.12 0.64-5.76h-4.48c-5.12-0.64-10.88-0.64-17.28-0.64zM440.32 838.4l-17.28-3.84c-58.88-12.8-113.28-42.88-156.16-87.68-44.8-46.08-74.88-104.32-86.4-168.32-2.56-12.16-1.28-21.12 3.84-28.16 5.12-6.4 13.44-9.6 23.68-8.96 23.68-0.64 50.56-0.64 76.8 4.48C372.48 563.2 409.6 606.72 426.24 712.96c4.48 30.08 7.68 64.64 10.24 92.16l3.84 33.28zM204.8 567.68c0 1.28 0 3.2 0.64 5.76v0.64c10.24 58.88 37.76 112.64 79.36 155.52 35.2 36.48 78.72 62.08 126.08 76.16-2.56-26.88-5.76-59.52-10.24-88.32-14.72-95.36-44.16-131.2-120.96-145.92-23.68-4.48-49.28-4.48-71.68-3.84h-1.28c0-0.64-1.28-0.64-1.92 0z m553.6-110.08H220.16c-11.52 0.64-19.84-2.56-25.6-8.96-5.76-7.04-7.04-16.64-3.84-28.8v-0.64c15.36-47.36 41.6-90.24 75.52-125.44C321.28 236.8 401.92 204.8 488.32 204.8c85.76 0 166.4 32 220.8 88.32 33.92 35.2 60.16 78.72 75.52 125.44v0.64c3.2 12.16 1.92 21.76-3.84 28.8-5.12 6.4-12.8 9.6-22.4 9.6z m-538.88-25.6H760.96c0-0.64 0-2.56-0.64-5.12-14.08-43.52-37.76-83.2-69.12-115.2-49.92-51.2-123.52-80.64-202.88-80.64-79.36 0-152.96 29.44-202.88 80.64-31.36 32.64-55.68 72.32-69.12 115.2-0.64 2.56-0.64 4.48-0.64 5.12h3.84z" fill="#708DB7" p-id="3455"></path><path d="M488.96 552.32m-61.44 0a61.44 61.44 0 1 0 122.88 0 61.44 61.44 0 1 0-122.88 0Z" fill="#E8E6FE" p-id="3456"></path><path d="M488.96 626.56c-40.96 0-74.24-33.28-74.24-74.24S448 478.08 488.96 478.08 563.2 511.36 563.2 552.32s-33.28 74.24-74.24 74.24z m0-122.24c-26.88 0-48.64 21.76-48.64 48.64s21.76 48.64 48.64 48.64 48.64-21.76 48.64-48.64-21.76-48.64-48.64-48.64zM864 384c-5.76 0-11.52-3.84-12.8-10.24-14.72-68.48-88.32-132.48-88.96-133.12-5.12-4.48-5.76-12.8-1.28-17.92 4.48-5.12 12.8-5.76 17.92-1.28 3.2 2.56 80.64 70.4 97.28 147.2 1.28 7.04-3.2 13.44-9.6 15.36-0.64-0.64-1.92 0-2.56 0zM900.48 327.68c-5.76 0-11.52-3.84-12.8-10.24-8.32-40.96-53.12-84.48-53.76-84.48-5.12-5.12-5.12-12.8 0-17.92 5.12-5.12 12.8-5.12 17.92 0 1.92 1.92 50.56 49.28 60.8 97.92 1.28 7.04-3.2 13.44-9.6 15.36-1.28-0.64-1.92-0.64-2.56-0.64z" fill="#708DB7" p-id="3457"></path><path d="M238.08 851.84c-2.56 0-5.12-0.64-7.04-2.56-3.84-2.56-87.68-61.44-112-136.96-1.92-7.04 1.28-14.08 8.32-16 7.04-1.92 14.08 1.28 16 8.32 21.12 66.56 101.12 122.88 101.76 123.52 5.76 3.84 7.04 12.16 3.2 17.92-2.56 3.84-6.4 5.76-10.24 5.76z" fill="#708DB7" p-id="3458"></path><path d="M167.04 865.92c-2.56 0-5.76-0.64-7.68-2.56-2.56-1.92-55.68-44.16-70.4-90.88-1.92-7.04 1.28-14.08 8.32-16 7.04-1.92 14.08 1.28 16 8.32 12.8 39.68 61.44 78.08 62.08 78.72 5.76 4.48 6.4 12.16 1.92 17.92-2.56 2.56-6.4 4.48-10.24 4.48z" fill="#708DB7" p-id="3459"></path></svg>