<?xml version="1.0" standalone="no"?><!DOCTYPE svg PUBLIC "-//W3C//DTD SVG 1.1//EN" "http://www.w3.org/Graphics/SVG/1.1/DTD/svg11.dtd"><svg t="1553151186556" class="icon" style="" viewBox="0 0 1024 1024" version="1.1" xmlns="http://www.w3.org/2000/svg" p-id="10880" xmlns:xlink="http://www.w3.org/1999/xlink" width="200" height="200"><defs><style type="text/css"></style></defs><path d="M305.856 600.48128c-5.72416 0-11.43808 1.72032-16.59392 5.1584v-0.58112l-5.71648 4.01152c-89.8816 71.54944-145.99168 179.17184-153.4208 294.80448l-0.02048 0.0128 0.58112 7.43168h0.58112c0.57088 18.3168 14.88384 32.05632 32.62976 32.05632 17.74336 0 32.62976-14.89152 32.62976-33.77408v-4.58496c8.01792-109.90848 50.37568-193.47968 125.9392-248.4352l4.5824-3.43808c7.4368-6.87104 12.01664-16.0256 12.01664-25.7536-0.00512-17.1776-12.59776-26.90816-33.20832-26.90816zM940.1344 908.44928c-5.20192-85.34528-36.55424-166.08768-88.7424-230.54592-20.672-25.53344-63.76448 10.30656-45.72672 32.4096 44.78464 54.87872 72.61952 124.56192 78.36928 199.30112l0.58112 5.71648h0.58112v1.1392c0 16.0256 12.5952 28.61824 28.04992 28.61824 14.87872 0 27.4688-12.5824 27.4688-28.61824v-1.72544-0.58112l-0.58112-5.71392zM534.85568 644.5824c48.65792 0 102.46144-17.76128 137.95328-34.3552 5.14048 2.10944 10.29376 4.18816 15.2448 6.65344 26.50624 13.19936 67.46624-27.44064 48.50944-38.27968-2.92864-1.67424-5.82656-3.4048-8.79872-5.02784 68.11648-58.38336 107.04128-141.9648 107.04128-231.83616 0-166.57408-133.94944-302.81984-299.38688-302.81984-164.86144 0-299.38944 135.66208-299.38944 302.81984l0.01792 0.04096c0 92.73088 41.78944 179.73248 113.91744 237.5552l24.6144 16.59392 30.33344 18.88256c41.21088 20.0448 84.72064 29.7728 129.94304 29.7728z m-238.71744-302.848c0-133.38112 107.61728-242.14272 239.27552-242.14272 132.23168 0 239.27552 108.76416 239.27552 242.14272 0 132.81024-107.61728 241.57184-239.27552 241.57184-131.66336 0-239.27552-108.76672-239.27552-241.57184zM749.4784 616.73472c-83.5584 76.8768-280.37376 227.77856-359.24736 275.54304-32.03584 19.40224 2.1504 82.85952 46.17728 58.68032 62.88896-34.53952 268.21376-197.9904 361.00352-276.8896 51.75808-44.01408-12.57984-89.86112-47.93344-57.33376z" p-id="10881" fill="#ffffff"></path></svg>