<?xml version="1.0" standalone="no"?><!DOCTYPE svg PUBLIC "-//W3C//DTD SVG 1.1//EN" "http://www.w3.org/Graphics/SVG/1.1/DTD/svg11.dtd"><svg t="1553150171187" class="icon" style="" viewBox="0 0 1024 1024" version="1.1" xmlns="http://www.w3.org/2000/svg" p-id="2149" xmlns:xlink="http://www.w3.org/1999/xlink" width="200" height="200"><defs><style type="text/css"></style></defs><path d="M291 340h442c4.42 0 8-3.58 8-8V120c0-4.42-3.58-8-8-8H291c-4.42 0-8 3.58-8 8v212c0 4.42 3.58 8 8 8z m48-172h346v116H339V168zM285 731.94H121c-4.42 0-8 3.58-8 8v164c0 4.42 3.58 8 8 8h164c4.42 0 8-3.58 8-8v-164c0-4.42-3.58-8-8-8z m-48 124h-68v-68h68v68zM594.5 731.94h-164c-4.42 0-8 3.58-8 8v164c0 4.42 3.58 8 8 8h164c4.42 0 8-3.58 8-8v-164c0-4.42-3.58-8-8-8z m-48 124h-68v-68h68v68zM904 731.94H740c-4.42 0-8 3.58-8 8v164c0 4.42 3.58 8 8 8h164c4.42 0 8-3.58 8-8v-164c0-4.42-3.58-8-8-8z m-48 124h-68v-68h68v68zM183 689h40c4.42 0 8-3.58 8-8V539h253.5v142c0 4.42 3.58 8 8 8h40c4.42 0 8-3.58 8-8V539H794v142c0 4.42 3.58 8 8 8h40c4.42 0 8-3.58 8-8V491c0-4.42-3.58-8-8-8H540.5v-94c0-4.42-3.58-8-8-8h-40c-4.42 0-8 3.58-8 8v94H183c-4.42 0-8 3.58-8 8v190c0 4.42 3.58 8 8 8z" p-id="2150" fill="#ffffff"></path></svg>