<?xml version="1.0" standalone="no"?><!DOCTYPE svg PUBLIC "-//W3C//DTD SVG 1.1//EN" "http://www.w3.org/Graphics/SVG/1.1/DTD/svg11.dtd"><svg t="1557914265262" class="icon" style="" viewBox="0 0 1024 1024" version="1.1" xmlns="http://www.w3.org/2000/svg" p-id="3161" xmlns:xlink="http://www.w3.org/1999/xlink" width="200" height="200"><defs><style type="text/css"></style></defs><path d="M519.68 788.48h-12.8c-163.84 0-304.64-153.6-304.64-322.56v-384c0-15.36 10.24-28.16 25.6-28.16h570.88c15.36 0 33.28 10.24 33.28 28.16v381.44c0 171.52-148.48 325.12-312.32 325.12zM261.12 115.2v348.16c0 135.68 115.2 263.68 245.76 263.68h12.8c130.56 0 250.88-128 250.88-263.68V115.2H261.12z m463.36 852.48h-435.2c-15.36 0-30.72-12.8-30.72-30.72 0-15.36 12.8-30.72 30.72-30.72h435.2c15.36 0 30.72 12.8 30.72 30.72-2.56 17.92-15.36 30.72-30.72 30.72z m0 0" fill="#ffffff" p-id="3162"></path><path d="M501.76 965.12c-15.36 0-30.72-12.8-30.72-30.72v-179.2c0-15.36 12.8-30.72 30.72-30.72 15.36 0 30.72 12.8 30.72 30.72v179.2c0 17.92-12.8 30.72-30.72 30.72z m307.2-355.84c-15.36 0-30.72-12.8-30.72-30.72 0-15.36 12.8-30.72 30.72-30.72 58.88 0 128-156.16 128-258.56 0-15.36-2.56-35.84-10.24-43.52-12.8-12.8-46.08-10.24-81.92-10.24h-35.84c-15.36 0-30.72-12.8-30.72-30.72 0-15.36 12.8-30.72 30.72-30.72h33.28c48.64-2.56 94.72-2.56 125.44 28.16 20.48 17.92 30.72 48.64 30.72 87.04 0 110.08-74.24 320-189.44 320z m-593.92 0C99.84 609.28 25.6 399.36 25.6 289.28c0-40.96 10.24-69.12 30.72-87.04 30.72-30.72 76.8-28.16 125.44-28.16h33.28c15.36 0 30.72 12.8 30.72 30.72 0 15.36-12.8 30.72-30.72 30.72H179.2c-35.84 0-69.12-2.56-81.92 10.24-10.24 10.24-10.24 28.16-10.24 43.52 0 102.4 69.12 258.56 128 258.56 15.36 0 30.72 12.8 30.72 30.72-2.56 15.36-15.36 30.72-30.72 30.72z m0 0" fill="#ffffff" p-id="3163"></path></svg>