<?xml version="1.0" encoding="UTF-8"?>
<svg width="20px" height="20px" viewBox="0 0 20 20" version="1.1" xmlns="http://www.w3.org/2000/svg" xmlns:xlink="http://www.w3.org/1999/xlink">
    <!-- Generator: Sketch 48.2 (47327) - http://www.bohemiancoding.com/sketch -->
    <title>czmx</title>
    <desc>Created with Sketch.</desc>
    <defs></defs>
    <g id="28快运侧栏导航图标" stroke="none" stroke-width="1" fill="none" fill-rule="evenodd" transform="translate(-640.000000, -821.000000)">
        <g id="czmx" transform="translate(641.000000, 822.000000)">
            <circle id="Oval-6" stroke="currentColor" cx="9" cy="9" r="9"></circle>
            <path d="M8.01798168,11.8502825 L8.01798168,10.7627119 L7.92432983,10.5932203 L6.21858751,10.5932203 C6.00797045,10.5932203 5.83723158,10.4224815 5.83723158,10.2118644 L5.83723158,10.2118644 C5.83723158,10.0012473 6.00797045,9.83050847 6.21858751,9.83050847 L7.49620711,9.83050847 L5.03428935,5.49445895 C4.94402437,5.33547987 4.99972815,5.13342764 5.15870723,5.04316266 C5.20853324,5.01487251 5.26484928,5 5.32214643,5 L5.32214643,5 C5.67256452,5 5.99489952,5.191718 6.1621768,5.49963219 L8.49961974,9.80225989 L10.8370627,5.49963219 C11.0043399,5.191718 11.3266749,5 11.677093,5 L11.677093,5 C11.8603513,5 12.0089115,5.14856018 12.0089115,5.33181845 C12.0089115,5.38901803 11.9941252,5.44524631 11.9659876,5.49504657 L9.51641119,9.83050847 L10.780652,9.83050847 C10.991269,9.83050847 11.1620079,10.0012473 11.1620079,10.2118644 L11.1620079,10.2118644 C11.1620079,10.4224815 10.991269,10.5932203 10.780652,10.5932203 L9.07490964,10.5932203 L8.9812578,10.7627119 L8.9812578,11.8502825 L10.780652,11.8502825 C10.991269,11.8502825 11.1620079,12.0210214 11.1620079,12.2316384 L11.1620079,12.2316384 C11.1620079,12.4422555 10.991269,12.6129944 10.780652,12.6129944 L8.9812578,12.6129944 L8.9812578,14.5183619 C8.9812578,14.7843633 8.76562109,15 8.49961974,15 L8.49961974,15 C8.23361838,15 8.01798168,14.7843633 8.01798168,14.5183619 L8.01798168,12.6129944 L6.21858751,12.6129944 C6.00797045,12.6129944 5.83723158,12.4422555 5.83723158,12.2316384 L5.83723158,12.2316384 C5.83723158,12.0210214 6.00797045,11.8502825 6.21858751,11.8502825 L8.01798168,11.8502825 Z" id="¥" fill="currentColor"></path>
        </g>
    </g>
</svg>