<?xml version="1.0" encoding="UTF-8"?>
<svg width="18px" height="20px" viewBox="0 0 18 20" version="1.1" xmlns="http://www.w3.org/2000/svg" xmlns:xlink="http://www.w3.org/1999/xlink">
    <!-- Generator: Sketch 48.2 (47327) - http://www.bohemiancoding.com/sketch -->
    <title>czyx</title>
    <desc>Created with Sketch.</desc>
    <defs></defs>
    <g id="28快运侧栏导航图标" stroke="none" stroke-width="1" fill="none" fill-rule="evenodd" transform="translate(-641.000000, -921.000000)">
        <g id="czyx" transform="translate(642.000000, 922.000000)" fill-rule="nonzero" stroke="currentColor">
            <path d="M8.06977981,7.86747717 C10.1377209,7.75653152 11.7332408,6.00640497 11.651931,3.93821383 C11.7382768,1.86660122 10.1413505,0.110941843 8.06977981,0 C6.0018387,0.11094565 4.40631882,1.86107219 4.48762867,3.92926334 C4.40631882,5.99745449 6.0018387,7.74758103 8.06977981,7.85852668 L8.06977981,7.86747717 Z M7.64887705,13.6047387 L10.9802776,8.79832771 C10.0308228,8.5449018 9.05250813,8.41553394 8.06977981,8.41345681 C6.60976358,8.35097136 5.15554888,8.63306983 3.82493071,9.23690152 C3.82493071,9.23690152 3.55626937,9.23690152 3.02790208,10.1319501 C2.22191807,11.4655725 0.977120552,13.4167785 0.618905438,14.0701639 C0.359199481,14.4997873 -0.276632347,15.3500834 0.135315034,16.2540825 C0.412545949,16.8396833 0.755017597,17.3921426 1.15622811,17.9009719 L3.15327737,17.9009719 C3.31407107,15.5291375 5.25325125,13.6685415 7.6309663,13.6047387 L7.64887705,13.6047387 Z M15.5206542,14.052263 C14.9027331,12.9782047 13.5415157,10.8032366 13.4340511,10.6063259 C13.3265866,10.4094152 12.8429962,9.37115881 12.0011907,9.10264423 L11.651931,8.9952384 L8.46381644,13.6047387 C10.8675271,13.640029 12.8460101,15.5047698 13.0221038,17.9009719 L14.8131793,17.9009719 C14.8131793,17.9009719 15.0101976,17.9009719 15.9594677,16.1645777 C16.3176828,15.2695291 15.9594677,14.8399057 15.493788,14.052263 L15.5206542,14.052263 Z M8.06977981,14.7414504 C5.96526602,14.7414504 4.26374422,16.1108747 4.26374422,17.9009719 L11.8758154,17.9009719 C11.8758154,16.1108747 10.1742936,14.7414504 8.06977981,14.7414504 Z" id="me_siji"></path>
        </g>
    </g>
</svg>