<?xml version="1.0" standalone="no"?><!DOCTYPE svg PUBLIC "-//W3C//DTD SVG 1.1//EN" "http://www.w3.org/Graphics/SVG/1.1/DTD/svg11.dtd"><svg t="1534850125916" class="icon" style="" viewBox="0 0 1024 1024" version="1.1" xmlns="http://www.w3.org/2000/svg" p-id="2086" xmlns:xlink="http://www.w3.org/1999/xlink" width="200" height="200"><defs><style type="text/css"></style></defs><path d="M927.887085 627.985886c0-0.722653 0-0.722653 0 0L865.738885 361.326747c-16.62103-70.097389-72.988003-108.398024-117.069866-108.398024h-71.542696c-13.730416 0-25.292872 11.562456-25.292872 25.292872v267.381792c0 13.730416 11.562456 25.292872 25.292872 25.292873h100.448836c13.730416 0 25.292872-11.562456 25.292872-25.292873s-11.562456-25.292872-25.292872-25.292872H703.141849V303.514467h46.249824c15.898377 0 54.921665 17.343684 67.929428 69.374736l61.425547 265.936485c6.503881 33.964714 1.445307 53.476359-15.898377 59.98024-13.007763 4.335921-20.234298 18.788991-15.898377 31.796754 3.613267 10.839802 13.730416 17.343684 23.847565 17.343684 2.890614 0 5.781228-0.722653 7.949189-1.445307 20.956951-7.949188 66.484121-33.242061 49.140437-118.515173z" fill="#ffffff" p-id="2087"></path><path d="M161.874382 244.256881h422.752294c13.730416 0 25.292872-11.562456 25.292872-25.292873s-11.562456-25.292872-25.292872-25.292872H161.874382c-45.52717 0-78.769231 29.628793-78.76923 71.542696V672.067749c0 27.460833 14.45307 52.753705 38.300635 67.206775 4.335921 2.16796 8.671842 3.613267 13.007763 3.613267 8.671842 0 16.62103-4.335921 21.679605-12.285109 7.226535-12.285109 3.613267-27.460833-8.671842-34.687368-8.671842-5.058574-13.730416-14.45307-13.730417-23.847565V264.491179c0-18.788991 21.679605-20.234298 28.183486-20.234298z" fill="#ffffff" p-id="2088"></path><path d="M706.755116 609.919548c-54.921665 0-101.171489 39.023289-112.011291 91.776994h-187.889908c-10.839802-52.031052-57.089626-91.776994-112.011292-91.776994-62.870854 0-114.179252 51.308398-114.179252 114.179252S231.971771 838.278052 294.842625 838.278052c53.476359 0 98.280875-36.855328 110.565985-86.718419h190.780522c12.285109 49.863091 57.089626 86.718419 110.565984 86.718419 62.870854 0 114.179252-51.308398 114.179252-114.179252s-51.308398-114.179252-114.179252-114.179252z m-348.318983 121.405787c-3.613267 31.796754-30.351447 56.366972-63.593508 56.366973-35.410021 0-63.593507-28.90614-63.593507-63.593508s28.90614-63.593507 63.593507-63.593507c33.964714 0 62.1482 26.738179 63.593508 60.702893-0.722653 2.16796-0.722653 3.613267-0.722654 5.781228 0 1.445307 0 2.890614 0.722654 4.335921z m348.318983 56.366973c-35.410021 0-63.593507-28.90614-63.593507-63.593508s28.90614-63.593507 63.593507-63.593507 63.593507 28.90614 63.593508 63.593507-28.183486 63.593507-63.593508 63.593508z" fill="#ffffff" p-id="2089"></path><path d="M578.845448 513.08398m-27.460833 0a27.460833 27.460833 0 1 0 54.921666 0 27.460833 27.460833 0 1 0-54.921666 0Z" fill="#ffffff" p-id="2090"></path><path d="M578.845448 416.971066m-27.460833 0a27.460833 27.460833 0 1 0 54.921666 0 27.460833 27.460833 0 1 0-54.921666 0Z" fill="#ffffff" p-id="2091"></path><path d="M578.845448 320.858151m-27.460833 0a27.460833 27.460833 0 1 0 54.921666 0 27.460833 27.460833 0 1 0-54.921666 0Z" fill="#ffffff" p-id="2092"></path></svg>