<?xml version="1.0" standalone="no"?><!DOCTYPE svg PUBLIC "-//W3C//DTD SVG 1.1//EN" "http://www.w3.org/Graphics/SVG/1.1/DTD/svg11.dtd"><svg t="1534933988744" class="icon" style="" viewBox="0 0 1024 1024" version="1.1" xmlns="http://www.w3.org/2000/svg" p-id="1892" xmlns:xlink="http://www.w3.org/1999/xlink" width="200" height="200"><defs><style type="text/css"></style></defs><path d="M 782.444 0 h -30.2832 a 31.0915 31.0915 0 0 0 -29.3193 20.7381 l -35.1645 99.6018 H 349.261 l -45.7668 -101.98 A 31.0915 31.0915 0 0 0 275.108 0 h -33.5789 A 176.958 176.958 0 0 0 64.7734 176.755 V 847.245 a 176.958 176.958 0 0 0 176.755 176.755 h 540.993 A 176.942 176.942 0 0 0 959.199 847.245 V 176.755 A 176.958 176.958 0 0 0 782.444 0 Z m 114.572 847.245 a 114.697 114.697 0 0 1 -114.572 114.572 H 241.529 A 114.697 114.697 0 0 1 126.957 847.245 V 176.755 A 114.697 114.697 0 0 1 241.529 62.1831 h 13.4471 l 45.7823 101.98 a 31.0915 31.0915 0 0 0 28.371 18.3596 h 380.545 a 31.0915 31.0915 0 0 0 29.3193 -20.7381 L 774.143 62.1831 h 8.30144 a 114.697 114.697 0 0 1 114.572 114.572 Z" fill="#ffffff" p-id="1893"></path><path d="M 747.792 590.599 H 286.845 a 23.3187 23.3187 0 1 0 0 46.6373 h 460.948 a 23.3187 23.3187 0 0 0 0 -46.6373 Z M 747.792 761.743 H 286.845 a 23.3187 23.3187 0 0 0 0 46.6373 h 460.948 a 23.3187 23.3187 0 0 0 0 -46.6373 Z M 389.68 62.1831 h 240.788 a 31.0915 31.0915 0 0 0 0 -62.1831 H 389.68 a 31.0915 31.0915 0 0 0 0 62.1831 Z" fill="#ffffff" p-id="1894"></path></svg>