<?xml version="1.0" standalone="no"?><!DOCTYPE svg PUBLIC "-//W3C//DTD SVG 1.1//EN" "http://www.w3.org/Graphics/SVG/1.1/DTD/svg11.dtd"><svg t="1557914090160" class="icon" style="" viewBox="0 0 1024 1024" version="1.1" xmlns="http://www.w3.org/2000/svg" p-id="2774" xmlns:xlink="http://www.w3.org/1999/xlink" width="200" height="200"><defs><style type="text/css"></style></defs><path d="M512 717.67a14 14 0 0 1-6.26-1.48L122.4 524.52a14 14 0 0 1 0-25l189.9-94.95a14 14 0 0 1 12.52 25L160 512l352 176 352-176-166.59-83.31a14 14 0 0 1 12.52-25l191.67 95.79a14 14 0 0 1 0 25L518.26 716.19a14 14 0 0 1-6.26 1.48z" p-id="2775" fill="#ffffff"></path><path d="M512 526a14 14 0 0 1-6.26-1.48L122.4 332.85a14 14 0 0 1 0-25l383.34-191.71a14 14 0 0 1 12.52 0L901.6 307.81a14 14 0 0 1 0 25L518.26 524.52A14 14 0 0 1 512 526zM160 320.33l352 176 352-176-352-176zM512 909.33a14 14 0 0 1-6.26-1.48L122.4 716.19a14 14 0 0 1 0-25l189.9-94.99a14 14 0 1 1 12.52 25L160 703.67l352 176 352-176-166.59-83.32a14 14 0 1 1 12.52-25l191.67 95.8a14 14 0 0 1 0 25L518.26 907.86a14 14 0 0 1-6.26 1.47z" p-id="2776" fill="#ffffff"></path></svg>