<?xml version="1.0" standalone="no"?><!DOCTYPE svg PUBLIC "-//W3C//DTD SVG 1.1//EN" "http://www.w3.org/Graphics/SVG/1.1/DTD/svg11.dtd"><svg t="1557914199142" class="icon" style="" viewBox="0 0 1024 1024" version="1.1" xmlns="http://www.w3.org/2000/svg" p-id="2991" xmlns:xlink="http://www.w3.org/1999/xlink" width="200" height="200"><defs><style type="text/css"></style></defs><path d="M957.08672 266.06592v-1.60768h-1.60768l0.4608 0.4608c0.45568 0.34304 0.79872 0.68608 1.14688 1.14688zM46.13632 454.72256l297.984-259.3792 225.62816 277.20192 384.4608-343.16288c0.57344-0.57344 1.152-1.26464 1.72544-1.95584l0.6912 79.58016c0.11264 15.75424 12.99968 28.5184 28.75392 28.5184h0.2304a28.75904 28.75904 0 0 0 28.5184-28.9792l-1.3824-175.95392-188.4928 0.2304c-15.872 0-28.7488 12.88192-28.7488 28.7488s12.88192 28.7488 28.7488 28.7488l89.70752-0.11264-0.11264 0.11264-344.66816 304.18944-217.58464-271.80032L12.4416 408.15616c-12.88192 9.30816-15.75424 27.24864-6.44096 40.12544s27.25376 15.75936 40.13568 6.44096z m909.45536-258.81088v1.60768a5.46304 5.46304 0 0 0-1.152-1.152l-0.4608-0.4608h1.6128z m45.5424 750.09024h-175.616V429.34784c0-15.872-12.88192-28.7488-28.7488-28.7488s-28.7488 12.88192-28.7488 28.7488v516.64896h-170.66496v-306.77504c0-15.872-12.88192-28.75392-28.75392-28.75392a28.76416 28.76416 0 0 0-28.7488 28.75392v306.77504H379.99616c0-0.57344 0.11264-1.152 0.11264-1.72544V407.44448c0-15.872-12.88192-28.7488-28.75392-28.7488a28.75904 28.75904 0 0 0-28.7488 28.7488v536.832c0 0.57344 0 1.152 0.11264 1.72544H161.4848v-381.07136c0-15.872-12.88192-28.7488-28.75392-28.7488s-28.7488 12.88192-28.7488 28.7488v381.07136H22.90176c-12.65152 0-22.8864 12.88192-22.8864 28.7488s10.23488 28.7488 22.8864 28.7488h978.23232c12.65152 0 22.8864-12.88192 22.8864-28.7488-0.11776-15.872-10.35264-28.7488-22.8864-28.7488z" fill="#ffffff" p-id="2992"></path></svg>