<?xml version="1.0" standalone="no"?><!DOCTYPE svg PUBLIC "-//W3C//DTD SVG 1.1//EN" "http://www.w3.org/Graphics/SVG/1.1/DTD/svg11.dtd"><svg t="1553150848527" class="icon" style="" viewBox="0 0 1024 1024" version="1.1" xmlns="http://www.w3.org/2000/svg" p-id="5076" xmlns:xlink="http://www.w3.org/1999/xlink" width="200" height="200"><defs><style type="text/css"></style></defs><path d="M782.336 241.536l-259.712-82.432a49.664 49.664 0 0 0-30.08 0l-259.84 82.432a49.664 49.664 0 0 0-34.688 47.616l1.536 298.88a243.2 243.2 0 0 0 64 164.864l8.704 8.96c45.824 45.184 158.208 104.192 206.08 129.408l13.952 7.424a29.952 29.952 0 0 0 27.776 0c28.032-13.696 170.496-84.992 223.488-137.088l8.704-8.832a243.2 243.2 0 0 0 64-164.864l0.768-298.624a49.664 49.664 0 0 0-34.688-47.744z m-10.112 344.32a204.8 204.8 0 0 1-51.2 137.728q-3.84 4.224-7.936 8.192c-42.624 42.112-158.464 102.4-200.32 123.392a12.8 12.8 0 0 1-11.52 0c-29.696-15.616-161.664-87.168-198.656-123.264l-1.28-1.28A202.752 202.752 0 0 1 243.2 587.648l-1.408-286.208a25.6 25.6 0 0 1 17.536-24.192l232.96-73.984a50.432 50.432 0 0 1 30.592 0L755.2 277.248a25.6 25.6 0 0 1 17.536 24.192z" p-id="5077" fill="#ffffff"></path><path d="M541.312 498.432l18.304-145.408a6.272 6.272 0 0 0-11.008-4.608l-153.6 197.12a6.272 6.272 0 0 0 4.864 9.984h72.192a3.712 3.712 0 0 1 3.712 4.224L457.216 705.28a6.272 6.272 0 0 0 11.008 4.608l153.6-197.12a6.272 6.272 0 0 0-4.864-9.984h-71.936a3.712 3.712 0 0 1-3.712-4.352z" p-id="5078" fill="#ffffff"></path></svg>