<?xml version="1.0" standalone="no"?><!DOCTYPE svg PUBLIC "-//W3C//DTD SVG 1.1//EN" "http://www.w3.org/Graphics/SVG/1.1/DTD/svg11.dtd"><svg t="1553150424494" class="icon" style="" viewBox="0 0 1024 1024" version="1.1" xmlns="http://www.w3.org/2000/svg" p-id="2323" xmlns:xlink="http://www.w3.org/1999/xlink" width="200" height="200"><defs><style type="text/css"></style></defs><path d="M364.814248 544.795574H329.152047v-18.360061h35.662201c16.687862 0 29.348797-9.760181 29.348797-22.386989 0-12.626808-13.241085-22.352863-29.348797-22.352863h-19.554489l43.135906-74.020396a33.03446 33.03446 0 0 0 4.026928-24.093315 20.953676 20.953676 0 0 0-10.374458-13.752982c-11.500633-6.313404-28.188496 0-35.662201 13.752982l-30.474972 56.240486c-10.920483 20.066387-11.500633 21.772712-11.500633 21.772712l-0.580151 1.160301c-14.401386-28.120243-40.84943-76.887023-41.975605-79.753649-7.507832-13.752983-24.741718-20.066387-36.276478-13.172832a26.959941 26.959941 0 0 0-10.920482 14.333133c-2.286476 7.473705-0.580151 16.039459 3.446777 23.54729l40.26928 69.379191 2.320602 4.026928h-21.294941c-16.687862 0-29.348797 9.760181-29.348797 22.352863 0 12.626808 13.241085 22.386989 29.348797 22.386989h37.982804v18.360062H239.399331c-16.687862 0-29.348797 9.760181-29.348797 22.933013 0 12.046657 11.53476 21.226688 27.642472 22.386989h40.269279v24.093315c0 16.039459 11.466507 29.246417 25.867893 29.246417 14.36726 0 25.867893-12.626808 25.867893-28.666266v-25.253616h41.429581c14.401386-2.286476 23.581417-10.920483 23.581417-21.806839-0.580151-12.626808-13.206959-22.352863-29.894821-22.352863z" p-id="2324" fill="#ffffff"></path><path d="M853.744729 337.681797c93.199493 0 169.130974-75.692595 169.130974-168.653203 0-92.926481-75.93148-168.653203-169.130974-168.653202-93.165367 0-169.096847 75.760848-169.096848 168.653202 0 14.913284 1.706325 28.666267 5.153103 42.453376l-155.889889 103.266814c-6.313404-7.439579-12.626808-14.913284-20.134639-21.806839a298.811704 298.811704 0 0 0-212.812904-87.773379c-80.538559 0-155.889889 30.986869-212.847031 87.773379A297.207758 297.207758 0 0 0 0.104257 505.208825c0 80.299673 31.055122 155.446244 88.012264 212.26688a298.845831 298.845831 0 0 0 212.847031 87.739252 300.347397 300.347397 0 0 0 212.26688-87.193228l165.069919 114.73332a135.004466 135.004466 0 0 0-10.340332 52.793708c0 25.79964 6.893555 49.892955 19.554489 70.539492H530.430192a33.955875 33.955875 0 0 0-33.921749 33.853496c0 18.360061 14.947411 33.853496 33.921749 33.853496h277.858028c75.93148-1.160301 136.881424-62.519763 136.881424-138.246484a138.519496 138.519496 0 0 0-138.621876-138.246484 136.506032 136.506032 0 0 0-87.432113 30.952743l-163.363594-113.573019a302.292608 302.292608 0 0 0 14.94741-293.726855l149.576485-99.239885c31.635273 40.1669 79.378258 65.96654 133.434646 65.96654z m0-278.813571a110.331 110.331 0 0 1 110.467506 110.160368 110.331 110.331 0 0 1-110.467506 110.160368 110.331 110.331 0 0 1-110.43338-110.160368 110.331 110.331 0 0 1 110.43338-110.126241zM807.196172 815.009265a70.607745 70.607745 0 0 1 0 141.113111 70.607745 70.607745 0 0 1-70.744251-70.539493c0-39.006599 31.635273-70.573619 70.744251-70.573618z m-505.072319-76.852896c-128.827568 0-233.527694-104.427115-233.527695-232.913418s104.700127-232.913417 233.527695-232.913417c128.861694 0 233.561821 104.427115 233.561821 232.913417-0.580151 128.486303-105.280277 232.913417-233.561821 232.913418z" p-id="2325" fill="#ffffff"></path></svg>