<?xml version="1.0" standalone="no"?><!DOCTYPE svg PUBLIC "-//W3C//DTD SVG 1.1//EN" "http://www.w3.org/Graphics/SVG/1.1/DTD/svg11.dtd"><svg t="1553150626728" class="icon" style="" viewBox="0 0 1024 1024" version="1.1" xmlns="http://www.w3.org/2000/svg" p-id="2608" xmlns:xlink="http://www.w3.org/1999/xlink" width="200" height="200"><defs><style type="text/css"></style></defs><path d="M499.2 1014.4c-113.6 0-224-40-312-112C73.6 808 8 670.4 8 523.2 8 252.8 228.8 32 499.2 32c16 0 30.4 12.8 30.4 30.4v430.4h430.4c16 0 30.4 12.8 30.4 30.4 0 270.4-220.8 491.2-491.2 491.2zM468.8 92.8c-224 16-401.6 201.6-401.6 430.4 0 129.6 57.6 251.2 156.8 332.8 76.8 64 174.4 97.6 273.6 97.6 227.2 0 414.4-177.6 430.4-401.6H499.2c-16 0-30.4-12.8-30.4-30.4V92.8z" fill="#ffffff" p-id="2609"></path><path d="M988.8 433.6H603.2c-12.8 0-24-11.2-24-24V24c0-12.8 11.2-24 24-24 225.6 0 409.6 184 409.6 409.6 0 14.4-11.2 24-24 24z m-361.6-48h337.6C952 204.8 806.4 60.8 627.2 48v337.6z" fill="#ffffff" p-id="2610"></path></svg>