<?xml version="1.0" standalone="no"?><!DOCTYPE svg PUBLIC "-//W3C//DTD SVG 1.1//EN" "http://www.w3.org/Graphics/SVG/1.1/DTD/svg11.dtd"><svg t="1553150538359" class="icon" style="" viewBox="0 0 1024 1024" version="1.1" xmlns="http://www.w3.org/2000/svg" p-id="2466" xmlns:xlink="http://www.w3.org/1999/xlink" width="200" height="200"><defs><style type="text/css"></style></defs><path d="M792.064 294.4h-108.032c-15.872-0.512-28.16-14.336-27.648-30.208 0.512-14.848 12.8-27.136 27.648-27.648h108.032V163.84c0-15.872 9.216-19.968 20.48-8.704L902.656 245.76c11.264 11.264 11.264 29.696 0 40.448l-90.624 90.624c-11.264 11.264-20.48 7.68-20.48-8.704V294.4z m-241.664 160.256H614.4c15.872 0.512 28.16 14.336 27.648 30.208-0.512 14.848-12.8 27.136-27.648 27.648h-73.728v51.2H614.4c15.872 0.512 28.16 14.336 27.648 30.208-0.512 14.848-12.8 27.136-27.648 27.648h-73.728v110.08c-0.512 15.872-14.336 28.16-30.208 27.648-14.848-0.512-27.136-12.8-27.648-27.648v-110.08H409.6c-15.872-0.512-28.16-14.336-27.648-30.208 0.512-14.848 12.8-27.136 27.648-27.648h73.216v-51.2H409.6c-15.872-0.512-28.16-14.336-27.648-30.208 0.512-14.848 12.8-27.136 27.648-27.648h63.488L396.8 375.296c-11.264-11.264-10.752-29.696 0.512-40.96s29.696-10.752 40.96 0.512L512 411.136l73.216-76.288c11.264-11.264 29.184-11.776 40.96-0.512 11.264 11.264 11.776 29.184 0.512 40.96l-76.288 79.36z m367.104 0c31.744 223.744-123.904 431.104-348.16 462.848s-431.104-124.416-462.848-348.16 124.416-431.104 348.16-462.848c43.008-6.144 86.528-5.12 129.024 2.048 15.36 4.096 24.576 19.456 20.992 34.816-4.096 15.36-19.456 24.576-34.816 20.992-192-31.744-373.248 97.792-404.992 289.792s97.792 373.248 289.792 404.992 373.248-97.792 404.992-289.792c6.144-36.352 6.144-73.216 1.024-109.568-1.536-15.872 10.24-29.696 26.112-31.232 15.36-1.536 29.184 10.24 30.72 26.112z" p-id="2467" fill="#ffffff"></path></svg>