<?xml version="1.0" standalone="no"?><!DOCTYPE svg PUBLIC "-//W3C//DTD SVG 1.1//EN" "http://www.w3.org/Graphics/SVG/1.1/DTD/svg11.dtd"><svg t="1541154430247" class="icon" style="" viewBox="0 0 1024 1024" version="1.1" xmlns="http://www.w3.org/2000/svg" p-id="2199" xmlns:xlink="http://www.w3.org/1999/xlink" width="200" height="200"><defs><style type="text/css"></style></defs><path d="M880.64 771.072H140.288c-20.992 0-42.496-12.8-42.496-37.376 0-25.088 22.016-36.864 42.496-36.864h126.464c15.872 0 29.184-13.312 29.184-29.184s-13.312-29.184-29.184-29.184H140.288c-57.344 0-100.864 40.96-100.864 95.744s43.52 95.744 100.864 95.744L880.64 829.44c20.992 0 42.496 11.264 42.496 36.864s-21.504 37.376-42.496 37.376H231.936c-15.872 0-29.184 13.312-29.184 29.184s13.312 29.184 29.184 29.184H880.64c57.344 0 100.864-40.96 100.864-95.232 0-54.272-43.52-95.744-100.864-95.744z" p-id="2200" fill="#currentColor"></path><path d="M592.384 329.216c0 41.984-33.792 75.776-75.776 75.776s-75.776-33.792-75.776-75.776 33.792-75.776 75.776-75.776 75.776 33.792 75.776 75.776z" p-id="2201" fill="#currentColor"></path><path d="M698.368 133.12c-48.64-47.104-113.152-73.216-181.248-73.216S385.024 86.016 336.384 133.12c-50.688 49.152-73.216 103.936-72.704 174.08 0 1.024 0 13.824 3.072 34.304 16.896 99.328 90.624 208.896 137.216 269.312 1.536 2.56 3.584 4.608 4.608 5.632 39.424 48.128 79.36 79.872 80.896 81.408l27.648 22.016 27.648-22.528c1.536-1.536 41.472-33.792 80.896-81.92 1.536-1.536 3.072-3.584 4.608-6.144 56.32-73.728 121.344-175.616 137.216-268.288 3.072-20.992 3.072-33.792 3.072-35.328 0.512-69.12-21.504-123.904-72.192-172.544zM517.12 442.88c-64.512 0-116.736-51.2-116.736-114.176S452.608 214.528 517.12 214.528s116.736 51.2 116.736 114.176c0.512 62.976-52.224 114.176-116.736 114.176z" p-id="2202" fill="#currentColor"></path><path d="M517.12 265.728c32.256 0 64 31.232 64 64 0 32.256-31.232 64-64 64-32.256 0-64-31.232-64-64 0.512-32.768 31.744-64 64-64z" p-id="2203" fill="currentColor"></path></svg>