<?xml version="1.0" standalone="no"?><!DOCTYPE svg PUBLIC "-//W3C//DTD SVG 1.1//EN" "http://www.w3.org/Graphics/SVG/1.1/DTD/svg11.dtd"><svg t="1537520986253" class="icon" style="" viewBox="0 0 1024 1024" version="1.1" xmlns="http://www.w3.org/2000/svg" p-id="1726" xmlns:xlink="http://www.w3.org/1999/xlink" width="200" height="200"><defs><style type="text/css"></style></defs><path d="M352.998832 478.144797c65.795461 0 119.321208-53.525747 119.321208-119.321207S418.794293 239.505579 352.998832 239.505579c-65.792264 0-119.318011 53.525747-119.31801 119.321208s53.525747 119.318011 119.31801 119.31801z m0-193.882576c41.115369 0 74.564566 33.449196 74.564566 74.564566s-33.449196 74.564566-74.564566 74.564565c-41.112173 0-74.561369-33.449196-74.561368-74.564565s33.449196-74.564566 74.561368-74.564566zM690.799588 478.144797c65.795461 0 119.321208-53.525747 119.321207-119.321207s-53.525747-119.321208-119.321207-119.321208-119.321208 53.525747-119.321208 119.321208 53.525747 119.321208 119.321208 119.321207z m0-193.882576c41.115369 0 74.564566 33.449196 74.564565 74.564566s-33.449196 74.564566-74.564565 74.564565-74.564566-33.449196-74.564566-74.564565 33.449196-74.564566 74.564566-74.564566zM352.998832 577.306334c-65.792264 0-119.318011 53.525747-119.31801 119.321208s53.525747 119.321208 119.31801 119.321208c65.795461 0 119.321208-53.525747 119.321208-119.321208S418.794293 577.306334 352.998832 577.306334z m0 193.882577c-41.112173 0-74.561369-33.449196-74.561368-74.564566s33.449196-74.564566 74.561368-74.564565c41.115369 0 74.564566 33.449196 74.564566 74.564565s-33.449196 74.564566-74.564566 74.564566zM690.799588 577.306334c-65.795461 0-119.321208 53.525747-119.321208 119.321208s53.525747 119.321208 119.321208 119.321208 119.321208-53.525747 119.321207-119.321208-53.525747-119.321208-119.321207-119.321208z m0 193.882577c-41.115369 0-74.564566-33.449196-74.564566-74.564566s33.449196-74.564566 74.564566-74.564565 74.564566 33.449196 74.564565 74.564565-33.449196 74.564566-74.564565 74.564566zM521.897612 462.850813c-35.773345 0-64.874753 29.104605-64.874753 64.874753s29.104605 64.874753 64.874753 64.874752 64.874753-29.104605 64.874752-64.874752-29.101408-64.874753-64.874752-64.874753z m0 84.99606c-11.093253 0-20.118111-9.024857-20.118111-20.11811s9.024857-20.118111 20.118111-20.118111 20.118111 9.024857 20.11811 20.118111-9.02166 20.118111-20.11811 20.11811z" fill="#ffffff" p-id="1727"></path><path d="M946.04352 884.98587a22.378321 22.378321 0 1 0 0-44.756642h-113.49645c83.838781-82.898892 135.874771-197.901083 135.874771-324.840511 0-252.01506-205.02698-457.042041-457.04204-457.04204S54.33776 263.373657 54.33776 515.388717 259.36474 972.430758 511.379801 972.430758h434.663719a22.378321 22.378321 0 1 0 0-44.756642h-237.510711a457.675027 457.675027 0 0 0 71.370859-42.688246h166.139852zM99.094402 515.388717c0-227.334969 184.950429-412.285399 412.285399-412.285398 227.334969 0 412.285399 184.950429 412.285398 412.285398 0 227.334969-184.950429 412.285399-412.285398 412.285399-227.334969 0-412.285399-184.950429-412.285399-412.285399z" fill="#ffffff" p-id="1728"></path></svg>