<?xml version="1.0" standalone="no"?><!DOCTYPE svg PUBLIC "-//W3C//DTD SVG 1.1//EN" "http://www.w3.org/Graphics/SVG/1.1/DTD/svg11.dtd"><svg t="1534848987041" class="icon" style="" viewBox="0 0 1024 1024" version="1.1" xmlns="http://www.w3.org/2000/svg" p-id="2558" xmlns:xlink="http://www.w3.org/1999/xlink" width="200" height="200"><defs><style type="text/css"></style></defs><path d="M755.301774 722.134033L534.133329 611.604588l66.820804-97.226102a28.05753 28.05753 0 0 0 4.916697-15.844626V343.338442c0-101.186491-81.080455-180.464908-184.616762-180.464908-103.536308 0-184.616763 79.277393-184.616763 180.464908v155.195418a27.852752 27.852752 0 0 0 5.176764 16.199914l68.732398 96.651703L79.74838 721.914922a28.013502 28.013502 0 0 0-15.885581 25.241844v98.510055c0 15.462716 12.525189 27.973571 27.973571 27.973571h650.953526c15.462716 0 27.973571-12.511879 27.97357-27.973571v-98.510055c0.001024-10.599261-5.981538-20.296479-15.461692-25.022733z m-40.485449 95.559217H119.810965v-52.915417l244.867295-117.277873a27.920329 27.920329 0 0 0 14.997872-18.248708 27.808725 27.808725 0 0 0-4.289055-23.193051l-82.801607-116.45774v-146.262019c0-69.825907 56.521542-124.516742 128.668598-124.516742 72.148079 0 128.669621 54.690835 128.669621 124.516742v146.507751l-80.124147 116.567297a27.966404 27.966404 0 0 0-4.043323 22.837762c2.048795 7.83989 7.348425 14.424496 14.588318 18.029597l234.472811 117.168317v53.244084z" fill="currentColor" p-id="2559"></path><path d="M942.432176 653.128258L721.291375 542.597789l66.820804-97.226103a28.060601 28.060601 0 0 0 4.917722-15.844625V274.332667c0-101.186491-81.080455-180.464908-184.616763-180.464908-20.161326 0-39.912074 3.059369-58.706513 9.097221l17.100933 53.270706c13.276721-4.261411 27.264018-6.419761 41.60558-6.419761 72.147056 0 128.668597 54.690835 128.668597 124.516742v146.507751l-80.124146 116.567296a27.966404 27.966404 0 0 0-4.043323 22.837763c2.048795 7.840914 7.348425 14.424496 14.588318 18.029596l234.445166 117.168317v53.243061h-69.743997v55.948166h97.717568c15.461692 0 27.973571-12.511879 27.973571-27.973571v-98.510055c0-10.599261-5.983586-20.296479-15.462716-25.022733z" fill="currentColor" p-id="2560"></path></svg>