<?xml version="1.0" standalone="no"?><!DOCTYPE svg PUBLIC "-//W3C//DTD SVG 1.1//EN" "http://www.w3.org/Graphics/SVG/1.1/DTD/svg11.dtd"><svg t="1537845811348" class="icon" style="" viewBox="0 0 1024 1024" version="1.1" xmlns="http://www.w3.org/2000/svg" p-id="2002" xmlns:xlink="http://www.w3.org/1999/xlink" width="200" height="200"><defs><style type="text/css"></style></defs><path d="M630.954667 602.453333c-10.171733-6.280533-19.217067-12.458667-23.893334-16.9984-9.454933-9.1136-8.8064-30.788267-0.512-58.333866 8.3968-27.648 110.250667-139.946667 110.250667-241.8688C716.8 127.658667 611.771733 0 482.372267 0 352.938667 0 247.9104 127.6928 247.9104 285.252267c0 97.553067 90.7264 214.084267 101.853867 235.178666 11.298133 21.2992 8.533333 53.4528-0.238934 63.249067-50.244267 34.816-245.384533 154.4192-315.426133 226.5088C-13.994667 865.143467 2.389333 955.733333 103.287467 955.733333h514.56A238.216533 238.216533 0 0 1 546.133333 785.066667c0-73.216 32.938667-138.786133 84.821334-182.613334z" fill="#ffffff" p-id="2003"></path><path d="M785.066667 989.866667a204.8 204.8 0 1 1 0-409.6 204.8 204.8 0 0 1 0 409.6z m71.543466-235.383467c10.376533 0 18.295467-1.911467 23.483734-5.188267 5.461333-3.2768 9.284267-13.9264 11.195733-32.494933l-25.668267-8.192c-0.8192 10.376533-2.4576 16.657067-4.9152 18.8416a13.789867 13.789867 0 0 1-9.557333 3.003733h-47.5136c-5.7344 0-8.465067-2.730667-8.465067-7.645866v-7.3728c33.041067-12.561067 61.986133-27.0336 86.562134-43.690667l-18.0224-18.8416c-18.0224 12.834133-40.686933 24.576-68.539734 35.498667v-37.6832h-27.8528v47.5136a630.101333 630.101333 0 0 1-42.871466 12.288l15.018666 22.664533 27.8528-8.192v3.2768c0 17.476267 9.557333 26.2144 28.945067 26.2144h60.347733z m7.918934 9.8304h-180.224v89.565867h28.672v-63.8976h122.606933v60.347733h28.945067v-86.016z m-70.4512 83.012267l-14.472534 21.2992a498.005333 498.005333 0 0 1 93.661867 36.864l16.110933-24.576c-28.672-13.380267-60.347733-24.576-95.300266-33.5872z m-33.5872-49.425067c-1.911467 27.8528-8.738133 47.240533-20.753067 58.709333-13.653333 11.4688-41.7792 18.295467-84.923733 20.206934l11.195733 25.941333c51.6096-4.642133 84.104533-14.472533 97.4848-29.764267 12.561067-11.741867 20.753067-36.0448 24.576-72.635733l-27.579733-2.4576z m-72.0896-85.469867v44.509867h27.8528v-65.809067c10.922667-9.8304 20.206933-20.48 27.306666-31.402666L720.0768 648.533333c-15.5648 20.753067-39.3216 39.048533-71.543467 54.340267l8.738134 27.8528c11.195733-6.007467 21.572267-12.014933 31.1296-18.295467z" fill="#ffffff" p-id="2004"></path></svg>