<?xml version="1.0" standalone="no"?><!DOCTYPE svg PUBLIC "-//W3C//DTD SVG 1.1//EN" "http://www.w3.org/Graphics/SVG/1.1/DTD/svg11.dtd"><svg t="1553150987912" class="icon" style="" viewBox="0 0 1024 1024" version="1.1" xmlns="http://www.w3.org/2000/svg" p-id="8142" xmlns:xlink="http://www.w3.org/1999/xlink" width="200" height="200"><defs><style type="text/css"></style></defs><path d="M960 742.7c0-19.9-10.2-37.4-25.6-47.6-4.8-19.3-12.4-37.4-22.4-54 0.7-3.7 1.1-7.5 1.1-11.4 0-15.3-5.9-29.7-16.7-40.5-14.1-14.1-33.7-19.3-51.9-15.6-16.6-10-34.7-17.6-54-22.4-10.3-15.4-27.8-25.6-47.6-25.6-19.9 0-37.4 10.2-47.6 25.6-19.3 4.8-37.4 12.4-54 22.4-18.2-3.7-37.8 1.5-51.9 15.6-14.1 14.1-19.3 33.7-15.6 51.9-10 16.6-17.6 34.7-22.4 54-15.4 10.3-25.6 27.8-25.6 47.6s10.2 37.4 25.6 47.6c4.8 19.3 12.4 37.4 22.4 54-0.7 3.7-1.1 7.5-1.1 11.4 0 15.3 5.9 29.7 16.7 40.5 10.8 10.8 25.1 16.7 40.5 16.7 3.9 0 7.7-0.4 11.4-1.1 16.6 10 34.7 17.6 54 22.4 10.3 15.4 27.8 25.6 47.6 25.6 19.9 0 37.4-10.2 47.6-25.6 19.3-4.8 37.4-12.4 54-22.4 3.8 0.8 7.6 1.2 11.4 1.2 14.6 0 29.3-5.6 40.5-16.7 14.1-14.1 19.3-33.7 15.6-51.9 10-16.6 17.6-34.7 22.4-54 15.4-10.3 25.6-27.9 25.6-47.7zM742.9 890c-81.2 0-147.3-66.1-147.3-147.3s66.1-147.3 147.3-147.3 147.3 66.1 147.3 147.3S824.2 890 742.9 890zM680.5 487.2c46.9-46.9 72.7-109.2 72.7-175.4 0-66.3-25.8-128.6-72.7-175.4-46.9-46.9-109.2-72.7-175.4-72.7-66.3 0-128.6 25.8-175.4 72.7-46.9 46.8-72.7 109.1-72.7 175.4 0 66.3 25.8 128.6 72.7 175.4 16.4 16.4 34.8 30.3 54.5 41.3-15.7 4.7-31.2 10.2-46.4 16.7-53.5 22.6-101.6 55-142.8 96.3-41.3 41.3-73.7 89.3-96.3 142.8C78.6 831.7 67 881.5 64 932.9c-0.8 14.3 10.6 26.4 25 26.4 13.3 0 24.2-10.4 25-23.6 2.6-45.6 12.9-89.8 30.7-131.8 20.1-47.6 48.9-90.3 85.6-126.9s79.4-65.5 126.9-85.6c49.2-20.8 101.5-31.4 155.4-31.4v-0.1c63.5-2 122.8-27.6 167.9-72.7zM307 311.8c0-109.2 88.9-198.1 198.1-198.1s198.1 88.9 198.1 198.1-88.9 198.1-198.1 198.1S307 421 307 311.8z" p-id="8143" fill="#ffffff"></path><path d="M809.8 686.8L758 656.9c-9.3-5.3-20.8-5.3-30 0l-51.8 29.9c-9.3 5.3-15 15.3-15 26v59.9c0 10.7 5.8 20.6 15 26l51.8 29.9c4.6 2.7 9.8 4 15 4 5.2 0 10.4-1.3 15-4l51.8-29.9c9.3-5.3 15-15.3 15-26v-59.9c0-10.7-5.8-20.7-15-26z m-35 74.3L743 779.5l-31.8-18.4v-36.8l31.8-18.4 31.8 18.4v36.8z" p-id="8144" fill="#ffffff"></path></svg>