<?xml version="1.0" encoding="UTF-8"?>
<svg width="18px" height="16px" viewBox="0 0 18 16" version="1.1" xmlns="http://www.w3.org/2000/svg" xmlns:xlink="http://www.w3.org/1999/xlink">
    <!-- Generator: Sketch 51.2 (57519) - http://www.bohemiancoding.com/sketch -->
    <title>ld</title>
    <desc>Created with Sketch.</desc>
    <defs></defs>
    <g id="28快运首页dashboard" stroke="none" stroke-width="1" fill="none" fill-rule="evenodd">
        <g id="28快运侧栏导航图标" transform="translate(-18.000000, -922.000000)" fill="#FFFFFF">
            <g id="ld" transform="translate(18.000000, 922.000000)">
                <path d="M17.4576094,0.011390625 L7.46690625,0.011390625 C7.16738434,0.0114682515 6.92459325,0.254259339 6.92451562,0.55378125 L6.92451562,2.13398437 L3.2653125,2.12189062 C3.07283328,2.12195953 2.89621749,2.22212012 2.79829687,2.38570312 L0.07734375,6.9204375 C0.0267343772,7.00495838 3.70318936e-06,7.10162622 0,7.20014062 L0,11.3661562 C0,12.51675 0.9365625,13.4533125 2.08771875,13.4533125 L2.93878125,13.4533125 C2.94735938,14.6178281 3.89657813,15.5628281 5.06278125,15.5628281 C6.22898437,15.5628281 7.17820312,14.6178281 7.18678125,13.4533125 L10.9400625,13.4533125 C10.9487812,14.6178281 11.8977187,15.5628281 13.0640625,15.5628281 C14.2304062,15.5628281 15.1794844,14.6178281 15.1880625,13.4533125 L15.9118594,13.4533125 C17.0631562,13.4533125 17.9997187,12.51675 17.9997187,11.3661562 L17.9997187,8.2850625 C17.9969062,8.23682812 17.9997187,8.22529687 17.9997187,8.21292187 L17.9997187,0.55378125 C17.9999224,0.254259339 17.7571313,0.0114682515 17.4576094,0.011390625 Z M5.06278125,14.4779063 C4.4893125,14.4779063 4.02285937,14.01075 4.02285937,13.4375625 C4.02285937,12.864375 4.4893125,12.3980625 5.06278125,12.3980625 C5.63625,12.3980625 6.10270312,12.8642344 6.10270312,13.4375625 C6.10270312,14.0108906 5.63639062,14.4779063 5.06278125,14.4779063 Z M13.0642031,14.4779063 C12.4910156,14.4779063 12.0242812,14.01075 12.0242812,13.4375625 C12.0242812,12.864375 12.490875,12.3980625 13.0642031,12.3980625 C13.6375312,12.3980625 14.1042656,12.8642344 14.1042656,13.4375625 C14.1042656,14.0108906 13.6375312,14.4779063 13.0642031,14.4779063 Z M16.9150781,11.3661563 C16.9150781,11.9192344 16.4653594,12.3683906 15.9121406,12.3683906 L14.8975313,12.3683906 C14.5285313,11.7383906 13.8457969,11.3131406 13.0642031,11.3131406 C12.2781094,11.3131406 11.592,11.7428906 11.2245469,12.3787969 C11.1903153,12.372036 11.1555175,12.3685516 11.120625,12.3683906 L6.89610938,12.3683906 C6.52696875,11.7383906 5.844375,11.3131406 5.06278125,11.3131406 C4.2811875,11.3131406 3.59859375,11.73825 3.22959375,12.3683906 L2.08771875,12.3683906 C1.53464063,12.3683906 1.08492188,11.9192344 1.08492188,11.3661563 L1.08492188,7.35060938 L3.569625,3.2079375 L7.924375,3.21904688 L7.924375,0.891991067 L16.9150781,0.976262942 L16.9150781,11.3661563 Z" id="Shape" fill-rule="nonzero"></path>
                <path d="M4.39875,4.26796875 C4.14024557,4.11709811 3.80840716,4.20375214 3.65667188,4.46175 L2.10810938,7.10634375 C2.01016556,7.27356917 2.00887545,7.48034423 2.10472501,7.64877876 C2.20057457,7.81721329 2.37900197,7.92171809 2.57279533,7.9229272 C2.76658869,7.92413631 2.9463062,7.82186605 3.04425,7.65464062 L4.59267188,5.01004687 C4.66546477,4.88594992 4.6859283,4.738002 4.64955306,4.59880537 C4.61317782,4.45960874 4.52294911,4.34058722 4.39875,4.26796875 Z" id="Shape" fill-rule="nonzero"></path>
                <text id="零" font-family="HannotateSC-W7, Hannotate SC" font-size="6" font-weight="bold">
                    <tspan x="9" y="8">零</tspan>
                </text>
            </g>
        </g>
    </g>
</svg>