<?xml version="1.0" encoding="UTF-8"?>
<svg width="18px" height="16px" viewBox="0 0 18 16" version="1.1" xmlns="http://www.w3.org/2000/svg" xmlns:xlink="http://www.w3.org/1999/xlink">
    <!-- Generator: Sketch 48.2 (47327) - http://www.bohemiancoding.com/sketch -->
    <title>jymx</title>
    <desc>Created with Sketch.</desc>
    <defs></defs>
    <g id="28快运侧栏导航图标" stroke="none" stroke-width="1" fill="none" fill-rule="evenodd" transform="translate(-669.000000, -856.000000)">
        <g id="jymx" transform="translate(669.000000, 856.000000)" fill="currentColor" fill-rule="nonzero">
            <path d="M17.8999484,11.004133 C17.4753654,10.3684474 16.5301863,9.51154823 15.2214906,9.41680661 C15.8272015,8.42201974 16.1616259,7.244671 16.1185731,5.98588403 C16.0034656,2.62318618 13.1654964,-0.0588822053 9.79468188,0.000982984909 C6.41441014,0.0611178381 3.69280954,2.81446716 3.69280954,6.20224366 C3.69278551,6.8746817 3.80263963,7.54262354 4.01804697,8.17977245 L0.180137064,8.17977245 C0.132361742,8.17977245 0.0865431721,8.19871301 0.0527609183,8.23242743 C0.0189786645,8.26614185 -5.59867065e-09,8.31186842 0,8.35954781 L0,15.8202247 C0,15.867904 0.0189786726,15.9136306 0.0527609258,15.947345 C0.0865431789,15.9810594 0.132361746,16 0.180137064,16 L10.1635125,16 L17.8502306,11.7883131 C17.8824752,11.7706052 17.9093156,11.7433693 17.9238166,11.7096614 C18.0471204,11.4235489 18.0073101,11.1380657 17.8999484,11.004133 Z M9.99409359,0.899590058 C12.7727076,0.943724899 15.0724272,3.15469199 15.2144653,5.92440086 C15.2848989,7.29752495 14.8300528,8.56224451 14.0347478,9.54013251 C13.7995013,9.60508116 13.5701563,9.68969506 13.3491462,9.79307642 C12.5906791,10.0958181 11.8322121,10.5500205 11.073745,11.0042229 L5.14354327,8.550649 C4.78098934,7.8207233 4.59272246,7.016927 4.59349477,6.20224366 C4.59349477,3.24448978 7.01958055,0.852309135 9.99409359,0.899590058 Z M1.0808223,15.1011233 C1.03304698,15.1011233 0.987228416,15.0821827 0.953446167,15.0484683 C0.919663918,15.0147539 0.900685251,14.9690273 0.900685256,14.9213479 L0.900685256,9.25842453 C0.900685256,9.15913735 0.981335357,9.07864919 1.0808223,9.07864919 L2.70205575,9.07864919 C2.74983107,9.07864918 2.79564963,9.09758974 2.82943189,9.13130416 C2.86321414,9.16501858 2.88219281,9.21074514 2.88219281,9.25842453 L2.88219281,14.9213479 C2.88219282,14.9690273 2.86321415,15.0147539 2.82943189,15.0484683 C2.79564964,15.0821827 2.74983107,15.1011233 2.70205575,15.1011233 L1.0808223,15.1011233 Z M9.8601617,15.0916851 L3.78287805,15.0916851 L3.78287805,9.07864919 L4.0957761,9.07864919 L10.1351409,11.6381108 C9.54726365,11.9550547 9.0068525,12.1348301 7.2813197,11.912448 C7.2813197,11.912448 4.99646136,11.4601332 4.99141753,11.461122 C4.91639045,11.4445826 4.83469829,11.4461107 4.74408935,11.4948298 C4.61285952,11.5653917 4.52035914,11.7003131 4.52621358,11.8488974 C4.53357723,12.0269397 4.66335533,12.176228 4.83893151,12.2086278 C4.84433562,12.2105155 4.84865891,12.2134818 4.85424315,12.2151897 L7.12964429,12.6693921 C8.95001925,13.1235945 10.4669533,12.3666504 10.4669533,12.3666504 C10.4669533,12.3666504 12.4390037,11.3069646 13.8042624,10.5499306 C15.3211965,9.64161568 16.4447113,10.8195936 16.8997375,11.2737961 L9.8601617,15.0916851 Z" id="Shape"></path>
            <path d="M11.826087,6.0377391 L8.17391306,6.0377391 C8.12778845,6.03773911 8.08355298,6.01587253 8.05093796,5.97694976 C8.01832293,5.938027 8,5.88523639 8,5.83019129 L8,5.20754782 C8,5.15250271 8.01832293,5.09971211 8.05093796,5.06078934 C8.08355298,5.02186657 8.12778845,4.99999999 8.17391306,5 L11.826087,5 C11.8722116,5 11.916447,5.02186658 11.9490621,5.06078935 C11.9816771,5.09971211 12,5.15250271 12,5.20754782 L12,5.83019129 C12,5.88523639 11.9816771,5.93802699 11.9490621,5.97694975 C11.916447,6.01587252 11.8722116,6.0377391 11.826087,6.0377391 Z M11.826087,8 L8.17391306,8 C8.12778845,8.00000001 8.08355298,7.97813343 8.05093796,7.93921066 C8.01832293,7.90028789 8,7.84749729 8,7.79245218 L8,7.16980871 C8,7.11476361 8.01832293,7.061973 8.05093796,7.02305024 C8.08355298,6.98412747 8.12778845,6.96226089 8.17391306,6.9622609 L11.826087,6.9622609 C11.9221365,6.9622609 12,7.05518322 12,7.16980871 L12,7.79245218 C12,7.90707768 11.9221365,8 11.826087,8 Z" id="Shape"></path>
            <path d="M9,8.81818182 L9,5.18181818 C9,5.13359699 9.01894943,5.08735083 9.05267963,5.0532533 C9.08640983,5.01915578 9.1321578,4.99999999 9.1798595,5 L9.71943795,5 C9.8187716,5 9.89929743,5.08140277 9.89929743,5.18181818 L9.89929743,8.81818182 C9.89929743,8.91859723 9.8187716,9 9.71943795,9 L9.1798595,9 C9.1321578,9.00000001 9.08640983,8.98084422 9.05267963,8.9467467 C9.01894943,8.91264917 9,8.86640301 9,8.81818182 Z" id="Shape"></path>
            <path d="M10.2559004,5.94309144 L8.05690856,3.74409959 C7.98103048,3.66819859 7.98103048,3.54516306 8.05690856,3.46926206 L8.46926206,3.05690856 C8.54516306,2.98103048 8.66819859,2.98103048 8.74409959,3.05690856 L10.9430914,5.25590041 C11.0189695,5.33180141 11.0189695,5.45483694 10.9430914,5.53073794 L10.5307379,5.94309144 C10.4548369,6.01896952 10.3318014,6.01896952 10.2559004,5.94309144 Z" id="Shape"></path>
            <path d="M9.74409959,5.94309144 L11.9430914,3.74409959 C12.0189695,3.66819859 12.0189695,3.54516306 11.9430914,3.46926206 L11.5307379,3.05690856 C11.4548369,2.98103048 11.3318014,2.98103048 11.2559004,3.05690856 L9.05690856,5.25590041 C8.98103048,5.33180141 8.98103048,5.45483694 9.05690856,5.53073794 L9.46926206,5.94309144 C9.54516306,6.01896952 9.66819859,6.01896952 9.74409959,5.94309144 Z" id="Shape"></path>
        </g>
    </g>
</svg>