<?xml version="1.0" standalone="no"?><!DOCTYPE svg PUBLIC "-//W3C//DTD SVG 1.1//EN" "http://www.w3.org/Graphics/SVG/1.1/DTD/svg11.dtd"><svg t="1534933875177" class="icon" style="" viewBox="0 0 1024 1024" version="1.1" xmlns="http://www.w3.org/2000/svg" p-id="1586" xmlns:xlink="http://www.w3.org/1999/xlink" width="200" height="200"><defs><style type="text/css"></style></defs><path d="M519.3 332.7c-35.9 0-72.5-15.4-100.2-42.2-28.1-27.2-44.2-63.3-44.2-99.2h40c0 52.1 50.7 101.4 104.4 101.4 26.2 0 53.7-11.3 75.3-30.9 21.6-19.6 34-44.9 34-69.5h40c0 35.8-17.2 71.9-47.1 99.1-28.9 26.2-66.1 41.3-102.2 41.3z" fill="#ffffff" p-id="1587"></path><path d="M452.3 890.8l-39.3-7.7c8.4-43-17.9-84.3-41.5-111.4-27-31-56.3-50.7-56.6-50.9l-8.6-5.8-6.3-253-10 3.9-0.7 0.2c-45.8 13.9-81 13.6-104.7-0.7-17-10.3-22.6-24.4-24.2-30.4L136 370.9c-13.1-27.3-14.5-52.1-4.1-73.5 16.4-33.8 55.5-44.7 63.8-46.7L379.8 191l12.3 38-185.9 60.3-1 0.2c-7.8 1.8-29.9 9.8-37.4 25.4-4.8 10.1-3.3 23.3 4.5 39.2l0.4 0.8 26 68.5 0.2 1c2.5 7 21.1 20.6 78 3.5l61.7-24.1 7.2 289.8c30 22.5 125.2 101.9 106.5 197.2zM198.9 424.3zM595.7 892c-18.7-95.4 76.5-174.7 106.5-197.1l7.2-289.8 61.7 24.1c56.9 17.1 75.5 3.5 78-3.5l0.2-1 26-68.5 0.4-0.8c7.8-16 9.3-29.2 4.5-39.2-7.5-15.6-29.6-23.7-37.5-25.4l-1-0.2-0.9-0.3-185-60 12.3-38L852.2 252c8.3 2 47.4 12.9 63.8 46.7 10.4 21.5 9 46.2-4.1 73.5l-24.4 64.1c-1.6 6-7.2 20.1-24.2 30.4-23.7 14.4-59 14.6-104.7 0.7l-0.8-0.2-10-3.9-6.2 253.1-8.6 5.6c-1.1 0.8-114.6 78-98.1 162.3l-39.2 7.7z m253.4-466.6z" fill="#ffffff" p-id="1588"></path><path d="M622.3 891.3H426.8c-6.6 0-12-5.4-12-12v-16c0-6.6 5.4-12 12-12h195.6c6.6 0 12 5.4 12 12v16c-0.1 6.5-5.5 12-12.1 12z" fill="#ffffff" p-id="1589"></path><path d="M515.4 660.4c-58.4 0-105.9-47.5-105.9-105.9s47.5-106 105.9-106 106 47.5 106 105.9-47.6 106-106 106z m0-171.9c-36.4 0-65.9 29.6-65.9 65.9s29.6 65.9 65.9 65.9c36.4 0 65.9-29.6 65.9-65.9s-29.5-65.9-65.9-65.9z" fill="#ffffff" p-id="1590"></path></svg>