<?xml version="1.0" standalone="no"?><!DOCTYPE svg PUBLIC "-//W3C//DTD SVG 1.1//EN" "http://www.w3.org/Graphics/SVG/1.1/DTD/svg11.dtd"><svg t="1557914415682" class="icon" style="" viewBox="0 0 1024 1024" version="1.1" xmlns="http://www.w3.org/2000/svg" p-id="4213" xmlns:xlink="http://www.w3.org/1999/xlink" width="200" height="200"><defs><style type="text/css"></style></defs><path d="M512 1024c-201.99619 0-365.714286-70.948571-365.714286-158.47619 0-56.685714 68.924952-106.276571 172.202667-134.290286 9.776762 13.799619 19.577905 27.37981 29.305905 40.594286C256.341333 791.064381 195.047619 825.758476 195.047619 865.52381c0 60.586667 141.897143 109.714286 316.952381 109.714286 175.030857 0 316.952381-49.127619 316.952381-109.714286 0-39.765333-61.293714-74.459429-152.746667-93.720381 9.728-13.214476 19.529143-26.794667 29.305905-40.594286C808.789333 759.222857 877.714286 808.838095 877.714286 865.52381 877.714286 953.051429 713.99619 1024 512 1024zM512 853.333333c0 0-341.333333-323.486476-341.333333-512C170.666667 152.81981 323.486476 0 512 0c188.513524 0 341.333333 152.81981 341.333333 341.333333C853.333333 529.846857 512 853.333333 512 853.333333zM512 48.761905C350.427429 48.761905 219.428571 177.42019 219.428571 336.11581S512 780.190476 512 780.190476s292.571429-285.379048 292.571429-444.074667S673.596952 48.761905 512 48.761905zM512 512c-94.256762 0-170.666667-76.409905-170.666667-170.666667 0-94.256762 76.409905-170.666667 170.666667-170.666667 94.256762 0 170.666667 76.409905 170.666667 170.666667C682.666667 435.590095 606.256762 512 512 512zM512 219.428571c-67.34019 0-121.904762 54.588952-121.904762 121.904762 0 67.31581 54.564571 121.904762 121.904762 121.904762 67.31581 0 121.904762-54.588952 121.904762-121.904762C633.904762 274.017524 579.34019 219.428571 512 219.428571z" p-id="4214" fill="#ffffff"></path></svg>