<?xml version="1.0" standalone="no"?><!DOCTYPE svg PUBLIC "-//W3C//DTD SVG 1.1//EN" "http://www.w3.org/Graphics/SVG/1.1/DTD/svg11.dtd"><svg class="icon" width="48px" height="48.00px" viewBox="0 0 1024 1024" version="1.1" xmlns="http://www.w3.org/2000/svg"><path d="M494.933333 1006.933333c-8.533333 0-21.333333-4.266667-25.6-8.533333l-290.133333-238.933333c-12.8-12.8-17.066667-29.866667-12.8-46.933334L341.333333 217.6c4.266667-17.066667 21.333333-29.866667 38.4-29.866667h234.666667c17.066667 0 34.133333 12.8 38.4 29.866667l174.933333 494.933333c4.266667 17.066667 0 34.133333-12.8 46.933334l-294.4 238.933333c-8.533333 4.266667-17.066667 8.533333-25.6 8.533333zM256 712.533333l238.933333 196.266667 243.2-196.266667-153.6-439.466666H409.6L256 712.533333z"  /><path d="M614.4 273.066667c-4.266667 0-8.533333 0-12.8-4.266667-21.333333-8.533333-34.133333-34.133333-25.6-55.466667l42.666667-128H371.2l46.933333 128c8.533333 25.6 0 46.933333-25.6 55.466667-21.333333 8.533333-42.666667 0-51.2-25.6L273.066667 59.733333c-8.533333-12.8-4.266667-25.6 4.266666-38.4s21.333333-17.066667 34.133334-17.066666h366.933333c12.8 0 25.6 8.533333 34.133333 17.066666s8.533333 25.6 4.266667 38.4l-64 183.466667c-4.266667 17.066667-21.333333 29.866667-38.4 29.866667zM273.066667 819.2c-12.8 0-21.333333-4.266667-29.866667-12.8-8.533333-8.533333-12.8-17.066667-12.8-29.866667 0-12.8 4.266667-21.333333 12.8-29.866666l396.8-379.733334c17.066667-17.066667 42.666667-17.066667 59.733333 0 8.533333 8.533333 12.8 17.066667 12.8 29.866667 0 12.8-4.266667 21.333333-12.8 29.866667l-396.8 379.733333c-8.533333 8.533333-21.333333 12.8-29.866666 12.8zM371.2 904.533333c-12.8 0-21.333333-4.266667-29.866667-12.8-8.533333-8.533333-12.8-17.066667-12.8-29.866666 0-12.8 4.266667-21.333333 12.8-29.866667l349.866667-324.266667c17.066667-17.066667 42.666667-17.066667 59.733333 4.266667 8.533333 8.533333 12.8 17.066667 12.8 29.866667 0 12.8-4.266667 21.333333-12.8 29.866666L401.066667 896c-8.533333 4.266667-21.333333 8.533333-29.866667 8.533333z"  /></svg>