<?xml version="1.0" standalone="no"?><!DOCTYPE svg PUBLIC "-//W3C//DTD SVG 1.1//EN" "http://www.w3.org/Graphics/SVG/1.1/DTD/svg11.dtd"><svg t="1534908924507" class="icon" style="" viewBox="0 0 1024 1024" version="1.1" xmlns="http://www.w3.org/2000/svg" p-id="2158" xmlns:xlink="http://www.w3.org/1999/xlink" width="200" height="200"><defs><style type="text/css"></style></defs><path d="M917 847.4H107c-40.3 0-73-32.7-73-73v-352c0-40.3 32.7-73 73-73h810c40.3 0 73 32.7 73 73v352c0 40.3-32.7 73-73 73z m-810-442c-9.4 0-17 7.6-17 17v352c0 9.4 7.6 17 17 17h810c9.4 0 17-7.6 17-17v-352c0-9.4-7.6-17-17-17H107z" fill="#ffffff" p-id="2159"></path><path d="M630.2 518.4h56v160h-56zM786.2 518.4h56v160h-56zM228 824.5h56v100h-56zM740.1 824.5h56v100h-56zM392.2 249.5h-56c0-8.9-7.2-16.1-16.1-16.1-8.9 0-16.1 7.2-16.1 16.1h-56c0-39.8 32.3-72.1 72.1-72.1 39.7 0 72.1 32.3 72.1 72.1z" fill="#ffffff" p-id="2160"></path><path d="M498.1 249.5h-56c0-67.3-54.7-122-122-122s-122 54.7-122 122h-56c0-98.1 79.9-178 178-178s178 79.8 178 178zM292.1 277.3h56v100h-56z" fill="#ffffff" p-id="2161"></path></svg>