<?xml version="1.0" standalone="no"?><!DOCTYPE svg PUBLIC "-//W3C//DTD SVG 1.1//EN" "http://www.w3.org/Graphics/SVG/1.1/DTD/svg11.dtd"><svg class="icon" width="48px" height="48.00px" viewBox="0 0 1024 1024" version="1.1" xmlns="http://www.w3.org/2000/svg"><path d="M678.685323 121.034611 105.816001 121.034611c-13.995759 0-25.282826 11.343349-25.282826 25.282826l0 75.792197c0 13.995759 11.287067 25.282826 25.282826 25.282826l572.870346 0c13.939477 0 25.282826-11.287067 25.282826-25.282826l0-75.792197C703.96815 132.37796 692.6248 121.034611 678.685323 121.034611"  /><path d="M105.798605 559.12632l497.078149 0c13.939477 0 25.282826-11.343349 25.282826-25.282826l0-75.792197c0-13.995759-11.343349-25.282826-25.282826-25.282826L105.798605 432.768471c-13.939477 0-25.282826 11.287067-25.282826 25.282826l0 75.792197C80.515778 547.782971 91.859128 559.12632 105.798605 559.12632"  /><path d="M678.685323 744.469586 105.816001 744.469586c-13.995759 0-25.282826 11.343349-25.282826 25.282826l0 75.792197c0 13.995759 11.287067 25.282826 25.282826 25.282826l572.870346 0c13.939477 0 25.282826-11.287067 25.282826-25.282826l0-75.792197C703.96815 755.812935 692.6248 744.469586 678.685323 744.469586"  /><path d="M939.871951 317.477678l-210.219839 162.306596c-11.5695 8.747221-10.835789 24.492834 0 33.861202l210.219839 162.306596c11.682064 9.42465 33.861202 4.119831 33.861202-23.985274L973.733153 341.40667C973.733153 307.376623 951.554014 307.432904 939.871951 317.477678"  /></svg>