<?xml version="1.0" standalone="no"?><!DOCTYPE svg PUBLIC "-//W3C//DTD SVG 1.1//EN" "http://www.w3.org/Graphics/SVG/1.1/DTD/svg11.dtd"><svg class="icon" width="48px" height="48.00px" viewBox="0 0 1024 1024" version="1.1" xmlns="http://www.w3.org/2000/svg"><path d="M367.328 65.28h191.232v26.368h-191.232V65.28zM271.84 192.736h31.872a31.904 31.904 0 0 0 31.84-31.872V33.376a31.904 31.904 0 0 0-31.84-31.84h-31.872a31.904 31.904 0 0 0-31.872 31.84v127.488c0 17.6 14.304 31.872 31.872 31.872zM850.72 96.032v543.936l26.432-0.064V88.032c0-12.64-14.272-22.752-31.904-22.752h-127.392v26.784h100.992c17.664 0 31.872 10.08 31.872 22.656v-18.688zM622.24 192.736h31.872a31.84 31.84 0 0 0 31.808-31.872V33.376a31.84 31.84 0 0 0-31.808-31.84h-31.872a31.904 31.904 0 0 0-31.872 31.84v127.488c0 17.6 14.304 31.872 31.872 31.872z"  /><path d="M75.2 899.04V123.488c0-17.568 14.272-31.872 31.904-31.872h101.024V65.28H80.672a31.84 31.84 0 0 0-31.84 31.872v828.352c0 17.536 14.24 31.808 31.84 31.808h509.696v-26.4H107.104a31.904 31.904 0 0 1-31.904-31.872zM522.4 447.584h189.12c3.488 0 6.336-7.2 6.336-15.936v-13.216c0-8.832-2.816-15.936-6.336-15.936h-189.12c-3.488 0-6.272 7.104-6.272 15.936v13.216c-0.032 8.736 2.752 15.936 6.272 15.936zM522.4 559.584h189.12c3.488 0 6.336-7.104 6.336-15.904v-13.184c0-8.8-2.816-15.904-6.336-15.904h-189.12c-3.488 0-6.272 7.104-6.272 15.904v13.184c-0.032 8.832 2.752 15.904 6.272 15.904z"  /><path d="M221.504 657.408c-7.424 0-13.376 7.072-13.376 15.936v13.184c0 8.768 5.984 15.936 13.376 15.936H624c7.424 0 13.472-7.168 13.472-15.936v-13.184c0-8.864-6.016-15.936-13.472-15.936H221.504zM220.064 763.168c-6.624 0-11.936 7.136-11.936 15.936v13.184c0 8.768 5.312 15.904 11.936 15.904h358.368c6.592 0 11.936-7.136 11.936-15.904v-13.184c0-8.8-5.344-15.936-11.936-15.936H220.064zM597.856 848.832c0.032-0.416 0-0.224 0 0zM287.744 402.816c41.632 0 75.456-36.224 75.456-80.832 0-44.544-33.824-80.768-75.456-80.768-41.568 0-75.424 36.224-75.424 80.768 0 44.608 33.856 80.832 75.424 80.832z m-8.736 117.888l69.568-98.72a242.24 242.24 0 0 0-60.512-7.904c-1.632 0-44.352-3.424-88.672 16.896 0 0-5.6 0.608-16.672 17.632-16.896 27.392-42.752 67.456-50.4 80.8-5.408 8.736-18.848 26.336-10.08 44.832 9.664 18.4 17.92 32.352 21.12 34.688h41.696c-0.864-31.584 28.512-83.488 93.952-88.224z m164.416 9.12c-12.8-21.984-41.344-66.72-43.648-70.784-3.008-5.184-12.384-25.344-29.952-30.752-1.856-0.64-4.288-1.344-7.232-2.24l-66.56 94.592c63.616 3.84 95.104 53.408 95.104 88.224l38.176 0.096s4 0.384 23.968-35.648c7.392-19.104-0.64-27.296-9.856-43.488z"  /><path d="M287.712 544.128c-43.936 0-79.52 28.448-79.52 64.8h159.04c0-36.352-35.584-64.8-79.52-64.8zM938.592 831.648c-7.296-3.2-9.12-17.952-10.816-21.952-1.952-4.576-1.28-16.224 4.832-26.496 6.24-10.496 18.176-19.648 18.048-21.152-0.736-14.848-7.552-30.72-25.472-39.648-10.336-5.312-21.6 11.296-36.672 14.4-10.24 2.144-18.304-6.112-20.672-7.424-33.952-17.952-17.248-48.544-20.864-52.96-3.2-3.936-25.696-16.672-44.672-8.704-17.824 7.392-8.896 29.536-21.568 41.408-3.968 3.776-16.832 6.08-24.576 6.304-26.592 0.704-35.008-32.064-52.512-24.608-16.864 7.296-29.536 23.392-28.928 35.008 0.608 12.032 15.52 17.632 16.672 30.112 0.608 6.528-5.824 15.2-7.872 20.928-1.76 4.672-11.328 12.768-23.36 14.912-9.76 1.728-21.664-2.56-28 0.032-4.672 1.888-12.096 12.576-12 21.792 0.288 11.04-3.104 21.728 6.016 31.712 9.728 10.72 18.464 3.04 31.648 12.096 8.416 5.92 8.16 14.464 9.248 18.08 2.208 7.584 1.952 21.184-4.192 31.232-4.32 7.168-15.36 11.712-16.416 18.08-3.296 20.384 11.744 35.584 21.184 40.864 12.992 7.296 28.8-11.648 43.36-14.56 8.128-1.536 15.328 4.384 20.224 8.704 6.24 5.728 12.864 12.928 14.336 23.52 1.152 8.256-2.208 19.104 1.728 25.728 6.784 11.584 26.912 14.816 40.96 12.832 18.016-2.528 14.816-27.072 23.232-40.096 6.144-9.472 15.84-8.928 18.88-9.504a38.4 38.4 0 0 1 27.168 4.608c5.376 3.392 9.344 13.984 14.592 16.544 10.368 5.024 19.424 3.712 23.552 0.672 9.248-6.784 18.336-11.328 24.704-25.184 4.288-9.44-12.672-19.744-14.912-34.24-1.888-12.96 8.352-25.12 10.176-28.8 1.824-3.616 14.016-10.56 24.352-11.648 11.552-1.28 22.208 0.768 23.968-0.384 6.592-4.64 7.2-8.384 9.6-18.016 2.144-8.768 1.696-14.08 0.352-23.424-1.952-14.272-21.856-14.848-35.328-20.768z m-129.152 92.416a79.84 79.84 0 0 1-90.272-67.872 79.936 79.936 0 0 1 67.872-90.304 79.904 79.904 0 0 1 22.4 158.176z"  /></svg>