<?xml version="1.0" standalone="no"?><!DOCTYPE svg PUBLIC "-//W3C//DTD SVG 1.1//EN" "http://www.w3.org/Graphics/SVG/1.1/DTD/svg11.dtd"><svg t="1534933922783" class="icon" style="" viewBox="0 0 1024 1024" version="1.1" xmlns="http://www.w3.org/2000/svg" p-id="1740" xmlns:xlink="http://www.w3.org/1999/xlink" width="200" height="200"><defs><style type="text/css"></style></defs><path d="M928 193.6c17.6 0 32-14.4 32-32V96c0-52.8-43.2-96-96-96H160C107.2 0 64 43.2 64 96v768c0 88 72 160 160 160h704c17.6 0 32-14.4 32-32s-14.4-32-32-32H224c-52.8 0-96-43.2-96-96s43.2-96 96-96h704c17.6 0 32-14.4 32-32V353.6c0-17.6-14.4-32-32-32s-32 14.4-32 32V704H224c-36.8 0-68.8 12.8-96 32V96c0-17.6 14.4-32 32-32h704c17.6 0 32 14.4 32 32v65.6c0 17.6 14.4 32 32 32z" fill="#ffffff" p-id="1741"></path><path d="M928 832H224c-17.6 0-32 14.4-32 32s14.4 32 32 32h704c17.6 0 32-14.4 32-32s-14.4-32-32-32z" fill="#ffffff" p-id="1742"></path></svg>