<?xml version="1.0" standalone="no"?><!DOCTYPE svg PUBLIC "-//W3C//DTD SVG 1.1//EN" "http://www.w3.org/Graphics/SVG/1.1/DTD/svg11.dtd"><svg class="icon" width="48px" height="48.00px" viewBox="0 0 1024 1024" version="1.1" xmlns="http://www.w3.org/2000/svg"><path d="M480 832a352 352 0 1 1 352-352 352 352 0 0 1-352 352z m0-640a288 288 0 1 0 288 288 288 288 0 0 0-288-288z"  /><path d="M864 896a32 32 0 0 1-22.72-9.28l-135.68-136a32 32 0 0 1 45.12-45.12l136 135.68a32 32 0 0 1 0 45.44A32 32 0 0 1 864 896z"  /></svg>