<?xml version="1.0" standalone="no"?><!DOCTYPE svg PUBLIC "-//W3C//DTD SVG 1.1//EN" "http://www.w3.org/Graphics/SVG/1.1/DTD/svg11.dtd"><svg class="icon" width="48px" height="48.00px" viewBox="0 0 1024 1024" version="1.1" xmlns="http://www.w3.org/2000/svg"><path d="M506.564 65q93 0 174.5 35.5t142 96 96 142.5 35.5 175-35.5 174.5-96 142-142 96-174.5 35.5-175-35.5-142.5-96-96-142-35.5-174.5 35.5-175 96-142.5 142.5-96 175-35.5zM560.564 452q0-24-15.5-40.5t-38.5-16.5-39 16.5-16 40.5v335q0 24 16 38.5t39 14.5 39-15 16-39zM506.564 328q29 0 49.5-20.5t20.5-49.5-20.5-49.5-49.5-20.5-50 20.5-21 49.5 21 49.5 50 20.5z" /></svg>