<?xml version="1.0" standalone="no"?><!DOCTYPE svg PUBLIC "-//W3C//DTD SVG 1.1//EN" "http://www.w3.org/Graphics/SVG/1.1/DTD/svg11.dtd"><svg t="1559268894896" class="icon" style="" viewBox="0 0 1027 1024" version="1.1" xmlns="http://www.w3.org/2000/svg" p-id="3387" xmlns:xlink="http://www.w3.org/1999/xlink" width="200.5859375" height="200"><defs><style type="text/css"></style></defs><path d="M999.005957 357.035233c86.708557 270.326676-61.20604 555.954863-331.532717 642.663419S111.518378 933.392109 24.809821 663.065432 86.015861 112.211073 356.342537 25.502517c198.91963-66.306543 418.241273 0 550.85436 163.216106 10.201007 10.201007 5.100503 25.502517-5.100504 35.703523 0 0-5.100503 0-5.100503 5.100504-10.201007 5.100503-25.502517 0-30.60302-10.201007C708.277267 20.402013 422.649081-10.201007 223.729451 147.914596S-5.793199 596.758889 157.422908 795.678519s448.844293 229.52265 647.763922 66.306543c147.914596-117.311576 204.020133-316.231206 147.914597-494.748823-5.100503-15.30151 0-25.502517 15.30151-30.603019 10.201007-5.100503 25.502517 0 30.60302 20.402013 0-5.100503 0-5.100503 0 0z" fill="#ffffff" p-id="3388"></path><path d="M346.141531 780.377009c-5.100503 0-10.201007-5.100503-15.30151-10.201007v-204.020133c-15.30151 15.30151-30.60302 25.502517-51.005033 35.703523h-5.100504c-10.201007 0-15.30151 0-15.30151-5.100503-5.100503-5.100503-5.100503-10.201007 0-20.402013 25.502517-20.402013 51.005033-35.703523 71.407047-61.20604V459.045299c5.100503-10.201007 10.201007-15.30151 20.402013-15.30151 0 5.100503 5.100503 10.201007 10.201007 15.30151v20.402014c20.402013-20.402013 35.703523-40.804027 51.005033-61.20604H279.834988c-10.201007-5.100503-15.30151-10.201007-15.30151-15.30151s5.100503-10.201007 15.30151-20.402014h153.015099l20.402014-45.904529c5.100503-5.100503 10.201007-5.100503 10.201006-5.100504 10.201007 0 15.30151 5.100503 20.402014 10.201007v5.100503l-10.201007 35.703523h275.42718c10.201007 5.100503 15.30151 10.201007 15.30151 20.402014s-5.100503 10.201007-15.30151 20.402013H448.151597c-20.402013 35.703523-51.005033 76.50755-86.708556 112.211073v234.623153c-5.100503 10.201007-10.201007 10.201007-15.30151 10.201007z m224.422146-5.100503c-35.703523 0-71.407047-10.201007-102.010066-30.60302-5.100503-5.100503-5.100503-15.30151-5.100504-20.402014 0-5.100503 5.100503-10.201007 20.402014-10.201006 25.502517 15.30151 51.005033 25.502517 81.608053 25.502516h25.502516c25.502517-15.30151 30.60302-51.005033 15.30151-107.11057H422.649081c-10.201007-10.201007-15.30151-15.30151-15.30151-20.402013s5.100503-10.201007 10.201006-15.30151h168.31661c-5.100503-5.100503-15.30151-25.502517-15.30151-25.502516-5.100503-10.201007-5.100503-15.30151-5.100503-20.402014 5.100503-5.100503 10.201007-10.201007 20.402013-15.30151 51.005033-15.30151 71.407047-25.502517 81.608053-25.502516H458.352604c-15.30151-15.30151-20.402013-20.402013-20.402013-30.60302 0-5.100503 5.100503-10.201007 15.30151-15.30151h204.020133c35.703523 0 56.105537 5.100503 61.20604 15.30151 5.100503 5.100503 0 15.30151-5.100504 25.502516-30.60302 25.502517-66.306543 40.804027-107.11057 51.005034l25.502517 40.804026H769.483307c10.201007 10.201007 15.30151 20.402013 5.100503 30.60302h-132.613086c20.402013 76.50755 0 127.512583-51.005034 147.914597h-20.402013z m56.105537-402.939763c-5.100503 0-10.201007-5.100503-15.30151-10.201007v-40.804026H422.649081v30.603019c-5.100503 10.201007-15.30151 10.201007-20.402014 10.201007-5.100503 0-10.201007-5.100503-15.30151-15.30151v-30.60302H259.432974c-10.201007-5.100503-15.30151-10.201007-15.30151-15.30151 0-5.100503 5.100503-10.201007 15.30151-15.30151h127.512583v-35.703523c5.100503-10.201007 10.201007-15.30151 20.402014-15.30151 5.100503 0 10.201007 5.100503 15.30151 10.201007v30.60302h188.718623v-25.502517c5.100503-10.201007 10.201007-15.30151 20.402013-15.30151 5.100503 0 10.201007 5.100503 15.30151 10.201007v30.60302h112.211073c10.201007 5.100503 15.30151 10.201007 15.30151 20.402013 0 5.100503-5.100503 10.201007-15.30151 15.30151h-117.311576V357.035233c-5.100503 10.201007-10.201007 15.30151-15.30151 15.30151z" fill="#ffffff" p-id="3389"></path></svg>