<?xml version="1.0" standalone="no"?><!DOCTYPE svg PUBLIC "-//W3C//DTD SVG 1.1//EN" "http://www.w3.org/Graphics/SVG/1.1/DTD/svg11.dtd"><svg t="1559268824992" class="icon" style="" viewBox="0 0 1024 1024" version="1.1" xmlns="http://www.w3.org/2000/svg" p-id="2926" xmlns:xlink="http://www.w3.org/1999/xlink" width="200" height="200"><defs><style type="text/css"></style></defs><path d="M18.637027 405.432831L982.51647 2.39786a29.885254 29.885254 0 0 1 40.636267 35.068778l-240.10594 963.751455a30.077237 30.077237 0 0 1-48.251567 15.806548l-208.492845-174.319984a29.885254 29.885254 0 0 0-40.38029 1.919823l-106.99817 107.190152a29.885254 29.885254 0 0 1-51.067308-21.182054v-226.667175a30.077237 30.077237 0 0 1 8.767195-21.246048l434.904043-436.375908L258.103026 632.803941a29.885254 29.885254 0 0 1-37.11659-1.023906L10.957732 456.372151a30.077237 30.077237 0 0 1 7.679295-50.875326z" p-id="2927" fill="#ffffff"></path></svg>