<?xml version="1.0" encoding="UTF-8"?>
<svg width="18px" height="20px" viewBox="0 0 18 20" version="1.1" xmlns="http://www.w3.org/2000/svg" xmlns:xlink="http://www.w3.org/1999/xlink">
    <!-- Generator: Sketch 48.2 (47327) - http://www.bohemiancoding.com/sketch -->
    <title>txgl</title>
    <desc>Created with Sketch.</desc>
    <defs></defs>
    <g id="28快运侧栏导航图标" stroke="none" stroke-width="1" fill="none" fill-rule="evenodd" transform="translate(-641.000000, -889.000000)">
        <g id="txgl" transform="translate(641.000000, 889.000000)" fill="currentColor" fill-rule="nonzero">
            <path d="M15.6569103,6.94694695 C15.1541193,6.41641642 14.6211609,5.94594595 14.0781467,5.54554555 C13.9977002,5.48548549 13.9373652,5.44544545 13.8669745,5.38538539 C14.8625006,5.04504505 15.5664079,4.22422422 15.5664079,3.26326326 C15.5664079,1.96196196 14.3295422,0.960960961 12.8513368,0.960960961 C12.5094389,0.960960961 12.1977085,1.02102102 11.9161456,1.13113113 C11.78542,1.18118118 11.6848618,1.23123123 11.6044152,1.28128128 C11.5541361,1.3013013 11.4435221,1.28128128 11.4133546,1.24124124 C11.3027406,1.07107107 11.1317917,0.860860861 10.8803962,0.650650651 C10.4178286,0.25025025 9.85470269,0 9.22118609,0 C8.58766949,0 8.03459944,0.25025025 7.56197594,0.660660661 C7.32063629,0.870870871 7.15974318,1.07107107 7.03907335,1.24124124 C6.99885008,1.29129129 6.88823607,1.32132132 6.84801279,1.3013013 C6.76756624,1.25125125 6.66700805,1.2012012 6.52622658,1.15115115 C6.24466365,1.04104104 5.93293325,0.980980981 5.59103541,0.980980981 C4.11283,0.980980981 2.87596426,1.97197197 2.87596426,3.28328328 C2.87596426,4.11411411 3.38881103,4.82482482 4.1631091,5.22522523 L3.92176944,5.40540541 C3.38881103,5.80580581 2.8457968,6.26626627 2.34300584,6.7967968 C0.884912079,8.32832833 0,10.0800801 0,12.032032 C0,17.4274274 4.04243927,20 8.9094557,20 C10.950787,20 12.9418391,19.5995996 14.560826,18.6386386 C16.7529946,17.3373373 17.9999161,15.1551552 17.9999161,12.032032 C18.009972,10.1901902 17.1150041,8.48848849 15.6569103,6.94694695 Z M8.91951152,19.1891892 C4.43461621,19.1891892 0.854744621,16.9169169 0.854744621,12.1121121 C0.854744621,10.4404404 1.58881941,8.87887888 2.91618753,7.48748749 C3.38881103,6.98698699 3.9016578,6.46646647 4.40444875,6.08608609 C4.5854535,5.95595596 4.7463466,5.84584585 4.88712807,5.74574575 C4.96757462,5.68568569 5.02790954,5.65565566 5.05807699,5.63563564 C5.54075631,5.32532533 5.60109122,4.78478478 4.90723971,4.43443443 L4.90723971,4.42442442 L4.89718389,4.42442442 L4.87707225,4.41441441 C4.84690479,4.4044044 4.84690479,4.4044044 4.83684897,4.4044044 C4.82679316,4.4044044 4.82679316,4.4044044 4.81673734,4.39439439 L4.80668152,4.38438438 L4.73629078,4.35435435 C4.12288582,4.17417417 3.87149034,3.54354354 3.87149034,2.94294294 C3.87149034,2.34234234 4.55528604,1.8018018 5.45025394,1.8018018 C5.6413145,1.8018018 5.82231924,1.84184184 5.97315653,1.9019019 C6.0636589,1.93193193 6.113938,1.96196196 6.12399382,1.97197197 L6.20444037,2.01201201 C6.77762206,2.29229229 7.51169685,2.11211211 7.92398543,1.63163163 L7.97426453,1.56156156 C8.02454362,1.48148148 8.14521345,1.32132132 8.32621819,1.17117117 C8.60778113,0.940940941 8.9094557,0.800800801 9.23124191,0.800800801 C9.55302812,0.800800801 9.86475851,0.940940941 10.1362656,1.18118118 C10.3172704,1.33133133 10.4379402,1.49149149 10.4882193,1.57157157 L10.5284426,1.63163163 C10.9306753,2.13213213 11.6647501,2.29229229 12.2379318,2.03203203 L12.3284342,1.98198198 C12.33849,1.97197197 12.3988249,1.94194194 12.4792715,1.91191191 C12.6401646,1.85185185 12.8111135,1.81181181 13.0021741,1.81181181 C13.897142,1.81181181 14.5206027,2.36236236 14.5809377,2.95295295 C14.6412726,3.54354354 14.2893189,4.17417417 13.6759139,4.35435435 L13.5854116,4.38438438 C13.4044068,4.46446446 13.2937928,4.5045045 13.2435137,4.51451451 C12.3586016,4.78478478 12.5697738,5.52552553 13.0122299,5.84584585 C13.0826206,5.88588589 13.1530113,5.93593594 13.2133463,5.97597598 C13.3641835,6.07607608 13.5250767,6.1961962 13.7060814,6.32632633 C14.2189282,6.71671672 14.6613842,7.17717718 15.1440635,7.67767768 C16.4714316,9.06906907 17.1451715,10.5605606 17.1451715,12.1021021 C17.1652832,17.1571572 13.7463047,19.1891892 8.91951152,19.1891892 Z" id="Shape"></path>
            <path d="M11.5,11.7138763 C11.78,11.7138763 12,11.4909239 12,11.2195037 C12,10.9480834 11.78,10.7251311 11.5,10.7251311 L9.46,10.7251311 L11.36,8.84457649 C11.56,8.65070488 11.56,8.34051031 11.36,8.14663871 C11.16,7.9527671 10.85,7.9527671 10.65,8.14663871 L9,9.7751602 L7.35,8.14663871 C7.16,7.9527671 6.85,7.9527671 6.65,8.13694513 L6.64,8.14663871 C6.44,8.34051031 6.44,8.65070488 6.64,8.84457649 L8.54,10.7251311 L6.5,10.7251311 C6.22,10.7251311 6,10.9480834 6,11.2195037 C6,11.4909239 6.22,11.7138763 6.5,11.7138763 L8.5,11.7138763 L8.5,12.2082489 L6.5,12.2082489 C6.22,12.2082489 6,12.4312012 6,12.7026215 C6,12.9740417 6.22,13.1969941 6.5,13.1969941 L8.5,13.1969941 L8.5,14.6219504 C8.5,14.8352091 8.72,15 9,15 C9.28,15 9.5,14.8352091 9.5,14.6219504 L9.5,13.2066876 L11.5,13.2066876 C11.78,13.2066876 12,12.9837353 12,12.712315 C12,12.4408948 11.78,12.2179424 11.5,12.2179424 L9.5,12.2179424 L9.5,11.7235698 L11.5,11.7235698 L11.5,11.7138763 Z" id="Shape"></path>
        </g>
    </g>
</svg>