<?xml version="1.0" standalone="no"?><!DOCTYPE svg PUBLIC "-//W3C//DTD SVG 1.1//EN" "http://www.w3.org/Graphics/SVG/1.1/DTD/svg11.dtd"><svg t="1557914856198" class="icon" style="" viewBox="0 0 1024 1024" version="1.1" xmlns="http://www.w3.org/2000/svg" p-id="10770" xmlns:xlink="http://www.w3.org/1999/xlink" width="200" height="200"><defs><style type="text/css"></style></defs><path d="M916.480154 109.245224 110.123262 109.245224c-23.873855 0-43.195827 19.321971-43.195827 43.195827l0 575.967892c0 23.848272 19.321971 43.200943 43.195827 43.200943l273.588919 0 0 71.996114-57.601599 57.595459 0 14.400656 374.380204 0 0-14.400656-57.595459-57.595459L642.895328 771.609886l273.583802 0c23.847248 0 43.200943-19.352672 43.200943-43.200943L959.680074 152.44105C959.681097 128.567195 940.327402 109.245224 916.480154 109.245224L916.480154 109.245224zM902.079498 656.412828l-777.55558 0L124.523918 166.841706l777.55558 0L902.079498 656.412828 902.079498 656.412828zM902.079498 656.412828" p-id="10771" fill="#ffffff"></path><path d="M512.949674 719.797408m-33.216066 0a32.458 32.458 0 1 0 66.432132 0 32.458 32.458 0 1 0-66.432132 0Z" p-id="10772" fill="#ffffff"></path></svg>