<?xml version="1.0" standalone="no"?><!DOCTYPE svg PUBLIC "-//W3C//DTD SVG 1.1//EN" "http://www.w3.org/Graphics/SVG/1.1/DTD/svg11.dtd"><svg t="1557914566672" class="icon" style="" viewBox="0 0 1024 1024" version="1.1" xmlns="http://www.w3.org/2000/svg" p-id="5455" xmlns:xlink="http://www.w3.org/1999/xlink" width="200" height="200"><defs><style type="text/css"></style></defs><path d="M537.505631 748.684549H276.821333c-11.996863 0-21.722855 9.734024-21.722855 21.742933 0 12.00891 9.724988 21.743937 21.722855 21.743938h260.684298c11.997867 0 21.723859-9.735027 21.723859-21.743938s-9.725992-21.743937-21.723859-21.743937zM276.821333 270.296847h108.627326c11.997867 0 21.723859-9.735027 21.723859-21.743937s-9.725992-21.743937-21.723859-21.743937H276.821333c-11.730824 0.348361-21.107451 9.950871-21.107451 21.743937 0 11.794071 9.376627 21.395576 21.075326 21.743937h0.032125z m391.045522 304.434196H276.821333c-11.996863 0-21.722855 9.735027-21.722855 21.743937s9.724988 21.742933 21.722855 21.742934h391.045522c12.002886 0 21.73189-9.739043 21.73189-21.751969 0-12.013929-9.730008-21.752973-21.73189-21.752972v0.01807zM276.820329 444.26742h391.045522c12.002886 0 21.73189-9.740047 21.73189-21.752973 0-12.013929-9.730008-21.751969-21.73189-21.751969H276.820329c-11.999875 0-21.714824 9.741051-21.714823 21.751969 0 12.010918 9.715953 21.752973 21.714823 21.752973zM168.212078 31.122573C120.221616 31.122573 81.317647 70.062682 81.317647 118.098322v782.784753C81.317647 948.918714 120.221616 987.858824 168.212078 987.858824h430.012738v-43.469804H168.212078c-23.994729 0-43.447718-19.471059-43.447717-43.489883V118.098322c0-24.01782 19.452988-43.487875 43.447717-43.487875h391.027451v217.439373c0 24.01782 19.451984 43.489882 43.447718 43.489882h217.237584V628.213961H863.372549V270.314918L646.134965 31.121569l-477.922887 0.001004zM602.686243 292.050824V74.610447h21.714824l195.521757 217.439373H602.684235h0.001004z" p-id="5456" fill="#ffffff"></path><path d="M910.632157 764.114824l-61.138824-61.340612L658.17098 894.681851v60.365804h60.812549l119.321098-119.647373c5.99542-6.025537 15.743498-6.025537 21.729883-0.010039 5.989396 5.9904 5.989396 15.711373 0.005019 21.756988L736.19978 981.380518a15.43429 15.43429 0 0 1-10.852392 4.470462H642.81098c-8.483137 0-15.36-6.903969-15.36-15.40116v-82.164957c0-4.065882 1.612298-7.962102 4.484518-10.864439l206.707451-207.349961a15.43429 15.43429 0 0 1 10.852392-4.470463c4.078933 0 7.983184 1.623341 10.875483 4.516643l82.8416 83.13073A15.398149 15.398149 0 0 1 947.701961 764.117835c0 4.075922-1.620329 8.001255-4.485522 10.865443l-41.283263 41.386667a15.366024 15.366024 0 0 1-10.870462 4.51062 15.372047 15.372047 0 0 1-10.876487-4.517647l-41.240094-41.384659c-5.981365-6.011482-5.981365-15.731451 0-21.742934 5.99542-6.025537 15.743498-6.025537 21.734902-0.002007l30.38469 30.494117 19.566432-19.611608z" p-id="5457" fill="#ffffff"></path></svg>