<?xml version="1.0" encoding="UTF-8"?>
<svg width="18px" height="16px" viewBox="0 0 18 16" version="1.1" xmlns="http://www.w3.org/2000/svg" xmlns:xlink="http://www.w3.org/1999/xlink">
    <!-- Generator: Sketch 48.2 (47327) - http://www.bohemiancoding.com/sketch -->
    <title>xhc</title>
    <desc>Created with Sketch.</desc>
    <defs></defs>
    <g id="28快运侧栏导航图标" stroke="none" stroke-width="1" fill="none" fill-rule="evenodd" transform="translate(-18.000000, -883.000000)">
        <g id="xhc" transform="translate(18.000000, 883.000000)" fill="currentColor">
            <path d="M17.457882,0 L7.46702287,0 C7.16749628,7.98655631e-05 6.9247014,0.24987397 6.92462377,0.55803523 L6.92462377,2.18381741 L3.2653635,2.17137483 C3.07288127,2.17144573 2.89626272,2.27449533 2.79834058,2.44279669 L0.077344958,7.10833002 C0.0267347947,7.1952888 3.7032472e-06,7.29474491 0,7.39610084 L0,11.6822802 C0,12.8660614 0.936577127,13.8296379 2.08775136,13.8296379 L2.93882715,13.8296379 C2.94740541,15.0277426 3.89663898,16 5.06286032,16 C6.22908166,16 7.17831524,15.0277426 7.18689349,13.8296379 L10.9402334,13.8296379 C10.9489522,15.0277426 11.8979046,16 13.0642665,16 C14.2306285,16 15.1797215,15.0277426 15.1882997,13.8296379 L15.9121079,13.8296379 C17.0634227,13.8296379 17.9999999,12.8660614 17.9999999,11.6822802 L17.9999999,8.51231598 C17.9971873,8.46269035 17.9999999,8.45082649 17.9999999,8.43809455 L17.9999999,0.55803523 C18.0002035,0.24987397 17.7574086,7.98655631e-05 17.457882,0 Z M5.06286032,14.8837849 C4.48938261,14.8837849 4.0229222,14.403154 4.0229222,13.8134336 C4.0229222,13.2237132 4.48938261,12.7439505 5.06286032,12.7439505 C5.63633803,12.7439505 6.10279844,13.2235686 6.10279844,13.8134336 C6.10279844,14.4032987 5.63647865,14.8837849 5.06286032,14.8837849 Z M13.0644072,14.8837849 C12.4912107,14.8837849 12.024469,14.403154 12.024469,13.8134336 C12.024469,13.2237132 12.4910701,12.7439505 13.0644072,12.7439505 C13.6377442,12.7439505 14.1044859,13.2235686 14.1044859,13.8134336 C14.1044859,14.4032987 13.6377442,14.8837849 13.0644072,14.8837849 Z M16.9153423,11.6822802 C16.9153423,12.2513112 16.4656165,12.7134228 15.9123891,12.7134228 L14.8977639,12.7134228 C14.5287582,12.0652512 13.8460131,11.6277354 13.0644072,11.6277354 C12.2783011,11.6277354 11.592181,12.069881 11.2247222,12.7241292 C11.1904901,12.7171734 11.1556917,12.7135884 11.1207987,12.7134228 L6.89621708,12.7134228 C6.52707069,12.0652512 5.84446628,11.6277354 5.06286032,11.6277354 C4.28125436,11.6277354 3.59864995,12.0651065 3.22964419,12.7134228 L2.08775136,12.7134228 C1.53466459,12.7134228 1.08493882,12.2513112 1.08493882,11.6822802 L1.08493882,7.55090968 L3.56968075,3.28874742 L7.92449876,3.30017723 L7.92449876,0.906000302 L16.9153423,0.992702898 L16.9153423,11.6822802 Z" id="Shape" fill-rule="nonzero"></path>
            <path d="M4.69422408,4.079533 C4.39973605,3.91770308 4.02170602,4.01065168 3.84884931,4.28739057 L2.08472824,7.12408833 C1.97315073,7.30346105 1.97168104,7.5252563 2.08087277,7.70592597 C2.19006451,7.88659563 2.39332885,7.99869168 2.61409808,7.99998863 C2.83486732,8.00128557 3.03960134,7.89158636 3.15117884,7.71221364 L4.91513971,4.87551588 C4.99806532,4.74240449 5.02137736,4.5837096 4.97993871,4.43440168 C4.93850006,4.28509377 4.8357116,4.1574265 4.69422408,4.079533 Z" id="Shape" fill-rule="nonzero"></path>
            <text id="小" font-family="HannotateSC-W7, Hannotate SC" font-size="6" font-weight="bold">
                <tspan x="9" y="8">小</tspan>
            </text>
        </g>
    </g>
</svg>