<?xml version="1.0" standalone="no"?><!DOCTYPE svg PUBLIC "-//W3C//DTD SVG 1.1//EN" "http://www.w3.org/Graphics/SVG/1.1/DTD/svg11.dtd"><svg t="1534933794522" class="icon" style="" viewBox="0 0 1024 1024" version="1.1" xmlns="http://www.w3.org/2000/svg" p-id="1431" xmlns:xlink="http://www.w3.org/1999/xlink" width="200" height="200"><defs><style type="text/css"></style></defs><path d="M534.3 885.6c-4.8 0-9.6-1.7-14.1-4.9-6.5-4.7-9.6-12-14.3-23.4-0.8-1.7-9.9-23.2-11.6-38-0.9-7.7 1.5-14.6 3.6-19.1l-0.6-0.2 3.3-4.6c0.1-0.2 0.3-0.4 0.3-0.5l2-2.7c0.9-1.2 8.9-11.9 21.4-14 10.7-1.8 26.1-1.3 34.2-0.9v-0.1l4.9 0.4h0.2c12.3 0.9 20.2 1.7 26.7 6.4 11.9 8.6 13.4 22.7 3.8 35.8-3.6 5-6.4 8.3-15.5 12.7l-1.2 0.6h-0.6c-0.8 0.3-4.7 1.9-8.9 8.1l-0.4 0.5c-5.1 6.4-5.1 10.9-5.1 10.9l0.1 1-0.1 1c-1.4 9.9-3.7 13.6-7.2 18.5l-0.1 0.1c-4.3 6-9.7 9.9-15.5 11.5-1.5 0.6-3.4 0.9-5.3 0.9z m-19-84.7l-2.1 2.9s-4.8 6.8-4 13.9c1.5 12.8 10.4 33.6 10.5 33.8l0.1 0.2c4.2 10.3 6.4 14.9 9.2 17 2.5 1.8 4.8 2.4 7 1.8 2.4-0.7 5-2.7 7.3-5.9l0.1-0.1c2.4-3.3 3.4-4.7 4.4-11-0.1-3.2 0.6-11.1 8.1-20.6 6.7-10 13.9-13.1 17-14 5.8-2.9 6.9-4.4 9.4-7.8 6.9-9.5 1.3-13.5-0.5-14.9-2.8-2-7.6-2.7-17.7-3.5l-1.3-0.1c-8.5-0.6-25.7-1.2-35.8 0.5-5.4 0.8-10.2 5.8-11.7 7.8zM463.4 810.3c-7.4 0-15.7-2.7-23.2-8.2-15-10.9-20.6-28-12.7-38.9 4.1-5.6 11.2-8.5 19.4-8.1 7.2 0.4 14.8 3.3 21.5 8.2 15 10.9 20.6 28 12.7 38.9-3.9 5.4-10.3 8.1-17.7 8.1z m-18.2-40.2c-2.6 0-4.6 0.7-5.5 1.9-2.1 2.9 0.4 11.4 9.4 17.9 8.9 6.5 17.8 6.4 19.9 3.4 2.1-3-0.4-11.4-9.4-17.9-4.3-3.1-9.3-5.1-13.5-5.3h-0.9z" fill="#ffffff" p-id="1432"></path><path d="M463.5 847.8h-0.1c-7 0-13.6-1.9-18.7-5.2-6.1-3.9-9.5-9.7-9.5-15.8 0-11.7 12.4-20.8 28.2-20.8h0.1c15.9 0 28.3 9.2 28.2 20.9 0 11.8-12.4 20.9-28.2 20.9z m-0.1-26.7c-8.1 0-13.2 3.8-13.2 5.8 0 0.9 1 2.1 2.6 3.1 2.7 1.7 6.6 2.7 10.6 2.8h0.1c8.1 0 13.2-3.8 13.2-5.8s-5.1-5.9-13.3-5.9zM482.5 774c-7.4 0-15.7-2.7-23.2-8.2-15-10.9-20.6-28-12.7-38.9 7.9-10.9 25.9-10.8 40.9 0.1 6.7 4.9 11.8 11.2 14.4 17.9 3 7.7 2.4 15.3-1.7 21-4 5.4-10.4 8.1-17.7 8.1z m-18.3-40.2c-2.7 0-4.7 0.7-5.5 1.9-2.1 2.9 0.4 11.4 9.4 17.9 8.9 6.5 17.8 6.4 19.9 3.4 1-1.4 1-3.8-0.2-6.7-1.5-4-4.9-8.1-9.2-11.2-5.3-3.8-10.5-5.3-14.4-5.3z" fill="#ffffff" p-id="1433"></path><path d="M526.9 773.4c-3.9 0-8-1.3-11.9-4-5-3.5-9.3-8.9-12-15.3s-3.6-13.3-2.6-19.3c1.2-7.1 5.2-12.5 10.8-14.9 5.6-2.4 12.3-1.4 18.2 2.7 5 3.5 9.3 8.9 12 15.3 6.1 14.6 2.5 29.6-8.3 34.2-1.9 0.9-4 1.3-6.2 1.3z m-9.1-39.7c-0.2 0-0.4 0-0.6 0.1-0.8 0.3-1.5 1.8-1.9 3.6-0.6 3.2 0 7.1 1.6 10.9 1.6 3.8 4 7 6.6 8.8 1.6 1.1 3.1 1.6 3.9 1.2 1.9-0.8 3.4-7 0.3-14.5-1.6-3.8-4-7-6.6-8.8-1.3-0.9-2.5-1.3-3.3-1.3z" fill="#ffffff" p-id="1434"></path><path d="M513.7 953.5c-38.5 0-76.7-6.8-113.6-20.1-33.3-12-65.4-29.6-92.7-50.8-54.5-42.3-87-95.5-87-142.1V587.7h93.3c50.6 0 91.7-41.2 91.7-91.7 0-50.6-41.2-91.7-91.7-91.7h-93.3V188.6h25c0-4.3-2.5-7.2-3.7-7.9 1.1 0.7 13.2 6.7 87.1 11.7 51.1 3.5 116.9 5.4 185.2 5.4 68.3 0 134.1-1.9 185.2-5.4 73.9-5.1 85.9-11.1 87.1-11.7-1.2 0.7-3.7 3.6-3.7 7.9h25v220.1h-93.2c-50.6 0-91.7 41.2-91.7 91.7s41.2 91.7 91.7 91.7h93.2v148.3c0 46.6-32.6 99.7-87.3 142.1-27.4 21.2-59.5 38.8-92.8 50.8-37 13.4-75.3 20.2-113.8 20.2zM245.5 612.7v127.8c0 38.4 29.6 85.3 77.3 122.3 54.5 42.3 122.3 65.7 190.9 65.7 68.7 0 136.6-23.3 191.2-65.7 47.9-37.1 77.6-84 77.6-122.3V617.2h-68.2c-64.4 0-116.7-52.4-116.7-116.7S650 383.7 714.4 383.7h68.2V208c-2.6 0.6-5 1-7.3 1.4-14.6 2.7-35.3 5.1-61.5 7.1-53.4 4.1-124.3 6.4-199.7 6.4-75.4 0-146.3-2.3-199.7-6.4-26.2-2-46.9-4.4-61.5-7.1-2.3-0.4-4.8-0.9-7.3-1.4v171.2h68.3c64.4 0 116.7 52.4 116.7 116.7 0 64.4-52.4 116.7-116.7 116.7h-68.4z" fill="#ffffff" p-id="1435"></path><path d="M792.9 199.1c-151.5-26-295.1-24.6-388.9-18.9-101.6 6.2-168 18.7-168.6 18.8l-4.7-24.6c2.8-0.5 68.6-12.9 171.8-19.2 95.1-5.8 240.9-7.2 394.7 19.2l-4.3 24.7z" fill="#ffffff" p-id="1436"></path></svg>