<?xml version="1.0" standalone="no"?><!DOCTYPE svg PUBLIC "-//W3C//DTD SVG 1.1//EN" "http://www.w3.org/Graphics/SVG/1.1/DTD/svg11.dtd"><svg class="icon" width="48px" height="48.00px" viewBox="0 0 1024 1024" version="1.1" xmlns="http://www.w3.org/2000/svg"><path d="M199.3216 552.704v284.3648h655.9232v-284.3648a31.3856 31.3856 0 0 1 62.8224 0v284.3648c0 34.6624-28.16 62.7712-62.8224 62.7712H199.3728c-34.7136 0-62.8224-28.1088-62.8224-62.7712v-284.3648a31.3856 31.3856 0 1 1 62.7712 0z"  /><path d="M531.2 171.1104c17.408 0 31.4368 14.0288 31.4368 31.3856v487.2192H499.8144V202.496c0-17.3568 14.08-31.3856 31.3856-31.3856z"  /><path d="M532.48 669.2352l128.3584-128.256a31.3856 31.3856 0 0 1 44.3904 44.3904L532.48 758.0672l-172.6976-172.6976a31.3856 31.3856 0 1 1 44.3904-44.3904l128.3072 128.256z"  /></svg>