<?xml version="1.0" encoding="UTF-8"?>
<svg width="18px" height="16px" viewBox="0 0 18 16" version="1.1" xmlns="http://www.w3.org/2000/svg" xmlns:xlink="http://www.w3.org/1999/xlink">
    <!-- Generator: Sketch 48.2 (47327) - http://www.bohemiancoding.com/sketch -->
    <title>xqk</title>
    <desc>Created with Sketch.</desc>
    <defs></defs>
    <g id="28快运侧栏导航图标" stroke="none" stroke-width="1" fill="none" fill-rule="evenodd" transform="translate(-641.000000, -786.000000)">
        <g id="xqk" transform="translate(641.000000, 786.000000)" fill="currentColor" fill-rule="nonzero">
            <path d="M16.3757256,6.28812665 C16.1097625,6.29762533 15.8556728,6.50659631 15.8461741,6.79155673 L15.6562005,14.7110818 L14.8701847,14.7110818 L15.0245383,7.37097625 C15.0269129,7.23324538 14.9746702,7.09788918 14.8773087,6.99815303 C14.7799472,6.89841689 14.6469657,6.84379947 14.5092348,6.84379947 L3.49076517,6.84379947 C3.3530343,6.84379947 3.22005277,6.90079156 3.12269129,6.99815303 C3.02532982,7.09788918 2.97308707,7.23087071 2.97546174,7.37097625 L3.1298153,14.7110818 L2.34379947,14.7110818 L2.15382586,6.79155673 C2.14670185,6.51134565 1.91635884,6.28812665 1.63614776,6.28812665 L1.62427441,6.28812665 C1.33931398,6.29525066 1.11372032,6.53271768 1.12084433,6.8176781 L1.32506596,15.2430079 C1.33218997,15.523219 1.56015831,15.746438 1.84274406,15.746438 L3.65936675,15.746438 C3.79709763,15.746438 3.93007916,15.6894459 4.02744063,15.5920844 C4.12480211,15.4923483 4.17704485,15.3593668 4.17467018,15.2192612 L4.02031662,7.87915567 L13.9844327,7.87915567 L13.8300792,15.2192612 C13.8277045,15.3569921 13.8799472,15.4923483 13.9773087,15.5920844 C14.0746702,15.6918206 14.2076517,15.746438 14.3453826,15.746438 L16.1620053,15.746438 C16.4422164,15.746438 16.6725594,15.523219 16.6796834,15.2430079 L16.8815303,6.8176781 C16.8862797,6.53271768 16.660686,6.29525066 16.3757256,6.28812665 Z" id="Shape"></path>
            <path d="M12.3007916,14.7823219 L5.69683377,14.7823219 C5.44986807,14.7823219 5.24802111,14.9817942 5.24802111,15.2287599 C5.24802111,15.4757256 5.4474934,15.6751979 5.69683377,15.6751979 L12.3007916,15.6751979 C12.5477573,15.6751979 12.7496042,15.4757256 12.7496042,15.2287599 C12.7496042,14.9817942 12.5477573,14.7823219 12.3007916,14.7823219 Z" id="Shape"></path>
            <path d="M12.7139842,12.3720317 L5.28364116,12.3720317 C4.99868074,12.3720317 4.76596306,12.6023747 4.76596306,12.8897098 C4.76596306,13.1770449 4.99630607,13.4073879 5.28364116,13.4073879 L12.7139842,13.4073879 C12.9989446,13.4073879 13.2316623,13.1770449 13.2316623,12.8897098 C13.2316623,12.6023747 12.9989446,12.3720317 12.7139842,12.3720317 Z" id="Shape"></path>
            <path d="M5.69683377,10.994723 L12.3007916,10.994723 C12.5477573,10.994723 12.7496042,10.7952507 12.7496042,10.548285 C12.7496042,10.3013193 12.5501319,10.101847 12.3007916,10.101847 L5.69683377,10.101847 C5.44986807,10.101847 5.24802111,10.3013193 5.24802111,10.548285 C5.24802111,10.7952507 5.44986807,10.994723 5.69683377,10.994723 Z" id="Shape"></path>
            <path d="M17.7340369,5.35963061 L9,0.0213720317 L0.265963061,5.35963061 C0.0213720317,5.50923483 -0.0546174142,5.82744063 0.0949868074,6.06965699 C0.242216359,6.31187335 0.560422164,6.39023747 0.805013193,6.24063325 L9,1.23245383 L17.1949868,6.24063325 C17.2781003,6.29287599 17.3707124,6.31662269 17.4633245,6.31662269 C17.6366755,6.31662269 17.8076517,6.22875989 17.9050132,6.06965699 C18.0522427,5.82506596 17.9762533,5.50923483 17.7340369,5.35963061 Z" id="Shape"></path>
        </g>
    </g>
</svg>