<?xml version="1.0" standalone="no"?><!DOCTYPE svg PUBLIC "-//W3C//DTD SVG 1.1//EN" "http://www.w3.org/Graphics/SVG/1.1/DTD/svg11.dtd"><svg t="1553151077274" class="icon" style="" viewBox="0 0 1024 1024" version="1.1" xmlns="http://www.w3.org/2000/svg" p-id="9595" xmlns:xlink="http://www.w3.org/1999/xlink" width="200" height="200"><defs><style type="text/css"></style></defs><path d="M101.376 850.432h237.568V469.504l-65.024-45.568-172.544 146.944v279.552z m293.376 0h237.568v-378.88L517.12 567.808l-122.88-66.56v349.184z m293.376-423.936v423.936h237.568V429.568L824.32 296.448l-136.192 130.048z" p-id="9596" fill="#ffffff"></path><path d="M140.8 464.384l129.024-108.032L516.096 506.88l292.352-275.456c1.024-1.024 2.048-2.048 2.56-3.072l49.152 49.664 79.36-223.232L712.704 128l54.272 55.296c-0.512 0.512-1.536 1.024-2.048 1.536l-257.024 242.176-244.224-148.48-164.352 136.704c-13.824 11.264-15.36 31.744-4.096 45.056 11.776 13.824 31.744 15.36 45.568 4.096z m779.264 430.08H99.84c-17.408 0-31.744 14.336-31.744 31.744 0 17.408 14.336 31.744 31.744 31.744h820.224c17.408 0 31.744-14.336 31.744-31.744 0-17.408-14.336-31.744-31.744-31.744z" p-id="9597" fill="#ffffff"></path></svg>