<?xml version="1.0" standalone="no"?><!DOCTYPE svg PUBLIC "-//W3C//DTD SVG 1.1//EN" "http://www.w3.org/Graphics/SVG/1.1/DTD/svg11.dtd"><svg t="1553150773167" class="icon" style="" viewBox="0 0 1024 1024" version="1.1" xmlns="http://www.w3.org/2000/svg" p-id="4219" xmlns:xlink="http://www.w3.org/1999/xlink" width="200" height="200"><defs><style type="text/css"></style></defs><path d="M390.8781464099884 837.3452479839325c-27.7005136013031 0-49.96955394744873-22.269040346145626-49.96955394744873-49.96955394744873l0-374.7716546058655c0-27.7005136013031 22.269040346145626-49.96955394744873 49.96955394744873-49.96955394744873l418.766587972641 0c27.7005136013031 0 49.96955394744873 22.269040346145626 49.96955394744873 49.96955394744873l0 374.7716546058655c0 27.7005136013031-22.269040346145626 49.96955394744873-49.96955394744873 49.96955394744873L390.8781464099884 837.3452479839325zM390.8781464099884 395.7664723396301c-9.2335045337677 0-16.83756709098816 7.604062557220459-16.83756709098816 16.83756709098816l0 374.7716546058655c0 9.2335045337677 7.604062557220459 16.83756709098816 16.83756709098816 16.83756709098816l418.766587972641 0c7.604062557220459 0 13.578683137893677-4.888325929641724 15.751272439956665-11.406093835830688l1.0862946510314941 0 0-5.431473255157471 0-374.7716546058655c0-9.2335045337677-7.604062557220459-16.83756709098816-16.83756709098816-16.83756709098816L390.8781464099884 395.7664723396301zM269.21314549446106 715.6802470684052c-9.2335045337677 0-16.294419765472412-7.604062557220459-16.294419765472412-16.294419765472412l0-374.7716546058655c0-27.7005136013031 22.269040346145626-49.96955394744873 49.96955394744873-49.96955394744873l374.22850728034973 0c9.2335045337677 0 16.294419765472412 7.604062557220459 16.294419765472412 16.294419765472412 0 9.2335045337677-7.604062557220459 16.294419765472412-16.294419765472412 16.294419765472412l-374.7716546058655 0c-9.2335045337677 0-16.83756709098816 7.604062557220459-16.83756709098816 16.83756709098816l0 374.7716546058655C285.5075652599335 708.6193318367004 278.44665002822876 715.6802470684052 269.21314549446106 715.6802470684052zM180.6801314353943 627.6903803348541c-9.2335045337677 0-16.294419765472412-7.604062557220459-16.294419765472412-16.294419765472412l0-374.7716546058655c0-27.7005136013031 22.269040346145626-49.96955394744873 49.96955394744873-49.96955394744873l374.22850728034973 0c9.2335045337677 0 16.294419765472412 7.604062557220459 16.294419765472412 16.294419765472412 0 9.2335045337677-7.604062557220459 16.294419765472412-16.294419765472412 16.294419765472412l-374.7716546058655 0c-9.2335045337677 0-16.83756709098816 7.604062557220459-16.83756709098816 16.83756709098816l0 374.7716546058655C197.51769852638245 620.0863177776337 189.913635969162 627.6903803348541 180.6801314353943 627.6903803348541z" p-id="4220" fill="#ffffff"></path></svg>