<?xml version="1.0" standalone="no"?><!DOCTYPE svg PUBLIC "-//W3C//DTD SVG 1.1//EN" "http://www.w3.org/Graphics/SVG/1.1/DTD/svg11.dtd"><svg t="1560826761101" class="icon" style="" viewBox="0 0 1024 1024" version="1.1" xmlns="http://www.w3.org/2000/svg" p-id="1446" xmlns:xlink="http://www.w3.org/1999/xlink" width="200" height="200"><defs><style type="text/css"></style></defs><path d="M713.8 417.1c-12.1-7.7-28.2-4.1-35.9 8L491.2 720.3l-121.9-98.1c-11.2-9-27.6-7.2-36.5 4.1-9 11.3-7.2 27.8 4.1 36.8l144.5 116.2c4.6 3.8 10.4 5.8 16.2 5.8 1.4 0 2.9-0.1 4.3-0.4 7.3-1.2 13.7-5.5 17.7-11.8l202.3-319.7c7.6-12.1 4-28.3-8.1-36.1z m43.8-232.8h-77v-23.8h-71.5c-11.8-49.9-54.2-96.3-107.4-96.3s-98.6 46.3-110.4 96.3h-71.5v23.8h-53.5c-78.1 0-141.6 60.2-141.6 138.7v494.1c0 78.5 63.5 142.4 141.6 142.4h491.2c78.1 0 141.6-63.9 141.6-142.4V322.9c0.1-78.5-63.4-138.6-141.5-138.6z m-318.8 28.1v-34.9c0-33.7 29.5-61.6 63-61.6 33.4 0 58.4 28 58.4 61.6v34.9h68.3v113.2H371.7V212.4h67.1z m407.7 604.7c0 49.7-39.5 90-88.9 90H266.4c-49.4 0-89.8-40.3-89.8-90V322.9c0-49.7 40.4-86.2 89.8-86.2h53.5v141.4h360.7V236.7h77c49.4 0 88.9 36.5 88.9 86.2v494.2z m0 0" p-id="1447" fill="#ffffff"></path></svg>