<?xml version="1.0" standalone="no"?><!DOCTYPE svg PUBLIC "-//W3C//DTD SVG 1.1//EN" "http://www.w3.org/Graphics/SVG/1.1/DTD/svg11.dtd"><svg t="1553151249916" class="icon" style="" viewBox="0 0 1024 1024" version="1.1" xmlns="http://www.w3.org/2000/svg" p-id="11177" xmlns:xlink="http://www.w3.org/1999/xlink" width="200" height="200"><defs><style type="text/css"></style></defs><path d="M342.71232 763.70944a14.698496 14.698496 0 0 1-14.698496-14.698496V274.991104a14.698496 14.698496 0 1 1 29.396992 0v474.01984a14.698496 14.698496 0 0 1-14.698496 14.698496M694.202368 678.365184H433.43872a14.700544 14.700544 0 0 1 0-29.39904h260.763648a14.698496 14.698496 0 0 1 0 29.39904m0-144.818176H433.43872a14.700544 14.700544 0 0 1 0-29.39904h260.763648a14.698496 14.698496 0 0 1 0 29.39904m0-161.478656H433.43872a14.698496 14.698496 0 0 1 0-29.396992h260.763648a14.696448 14.696448 0 0 1 14.698496 14.698496 14.696448 14.696448 0 0 1-14.698496 14.698496" p-id="11178" fill="#ffffff"></path><path d="M370.327552 357.369856c0 15.251456-12.363776 27.615232-27.615232 27.615232s-27.615232-12.363776-27.615232-27.615232 12.363776-27.615232 27.615232-27.615232 27.615232 12.363776 27.615232 27.615232M370.327552 518.846464c0 15.251456-12.363776 27.615232-27.615232 27.615232s-27.615232-12.363776-27.615232-27.615232 12.363776-27.615232 27.615232-27.615232 27.615232 12.363776 27.615232 27.615232M370.327552 663.66464c0 15.251456-12.363776 27.615232-27.615232 27.615232s-27.615232-12.363776-27.615232-27.615232 12.363776-27.615232 27.615232-27.615232 27.615232 12.363776 27.615232 27.615232" p-id="11179" fill="#ffffff"></path><path d="M512.002048 960C264.972288 960 64 759.02976 64 512c0-247.025664 200.972288-447.997952 448.002048-447.997952 247.027712 0 447.997952 200.97024 447.997952 447.997952 0 247.02976-200.97024 448-447.997952 448z m0-883.8144C271.691776 76.1856 76.183552 271.691776 76.183552 512s195.508224 435.816448 435.818496 435.816448 435.8144-195.508224 435.8144-435.816448-195.504128-435.8144-435.8144-435.8144z" p-id="11180" fill="#ffffff"></path></svg>