<?xml version="1.0" standalone="no"?><!DOCTYPE svg PUBLIC "-//W3C//DTD SVG 1.1//EN" "http://www.w3.org/Graphics/SVG/1.1/DTD/svg11.dtd"><svg t="1553151245149" class="icon" style="" viewBox="0 0 1024 1024" version="1.1" xmlns="http://www.w3.org/2000/svg" p-id="11022" xmlns:xlink="http://www.w3.org/1999/xlink" width="200" height="200"><defs><style type="text/css"></style></defs><path d="M756.869565 641.855072c-5.565217 0-9.275362-3.710145-9.275362-9.275362v-241.15942c-31.536232-3.710145-148.405797-12.985507-233.739131-1.855073-102.028986 11.130435-244.869565 3.710145-244.869565 3.710145-5.565217 0-9.275362-5.565217-9.275362-9.275362 0-5.565217 5.565217-9.275362 9.275362-9.275362 1.855072 0 142.84058 9.275362 243.014493-1.855073 102.028986-11.130435 244.869565 1.855072 246.724638 1.855073h7.42029v259.710145c0 3.710145-5.565217 7.42029-9.275363 7.420289z" p-id="11023" fill="#ffffff"></path><path d="M797.681159 595.478261c-5.565217 0-9.275362-3.710145-9.275362-9.275362v-241.159421c-31.536232-3.710145-148.405797-12.985507-233.73913-1.855072-102.028986 11.130435-244.869565 3.710145-244.869566 3.710145-5.565217 0-9.275362-5.565217-9.275362-9.275363s5.565217-9.275362 9.275362-9.275362c1.855072 0 142.84058 9.275362 243.014493-1.855072 102.028986-11.130435 244.869565 1.855072 246.724638 1.855072h7.42029v259.710145c0 3.710145-3.710145 7.42029-9.275363 7.42029z" p-id="11024" fill="#ffffff"></path><path d="M664.115942 487.884058h-68.637681c-5.565217 0-9.275362-3.710145-9.275362-9.275362s3.710145-9.275362 9.275362-9.275363h68.637681c5.565217 0 9.275362 3.710145 9.275362 9.275363s-3.710145 9.275362-9.275362 9.275362zM465.623188 550.956522l-44.521739-55.652174c-3.710145-3.710145-1.855072-9.275362 1.855073-12.985507 3.710145-3.710145 9.275362-1.855072 12.985507 1.855072l31.536232 38.956522L500.869565 482.318841c3.710145-3.710145 9.275362-3.710145 12.985507 0 3.710145 3.710145 3.710145 9.275362 0 12.985507l-48.231884 55.652174z" p-id="11025" fill="#ffffff"></path><path d="M513.855072 549.101449h-92.753623c-5.565217 0-9.275362-3.710145-9.275362-9.275362s3.710145-9.275362 9.275362-9.275362h92.753623c5.565217 0 9.275362 3.710145 9.275363 9.275362s-3.710145 9.275362-9.275363 9.275362z" p-id="11026" fill="#ffffff"></path><path d="M512 1022.144928C230.028986 1022.144928 1.855072 793.971014 1.855072 512S230.028986 1.855072 512 1.855072s510.144928 228.173913 510.144928 510.144928-228.173913 510.144928-510.144928 510.144928z m0-964.637682c-250.434783 0-454.492754 204.057971-454.492754 454.492754s204.057971 454.492754 454.492754 454.492754 454.492754-204.057971 454.492754-454.492754-204.057971-454.492754-454.492754-454.492754z" p-id="11027" fill="#ffffff"></path><path d="M330.202899 708.637681c-68.637681 0-120.57971-5.565217-122.434783-5.565217-9.275362-1.855072-16.695652-9.275362-16.695652-18.550725V434.086957c0-5.565217 1.855072-9.275362 5.565217-12.985508 3.710145-3.710145 9.275362-5.565217 12.985507-5.565217 1.855072 0 140.985507 9.275362 241.159421-1.855073 102.028986-12.985507 243.014493 1.855072 248.57971 1.855073 9.275362 1.855072 16.695652 9.275362 16.695652 18.550725v250.434782c0 5.565217-1.855072 11.130435-5.565217 12.985507-3.710145 3.710145-9.275362 5.565217-14.84058 5.565218-1.855072 0-129.855072-12.985507-246.724638 0-42.666667 3.710145-83.478261 5.565217-118.724637 5.565217zM228.173913 667.826087c35.246377 3.710145 124.289855 7.42029 215.188406-1.855073 94.608696-9.275362 192.927536-5.565217 235.594203-1.855072V450.782609c-40.811594-3.710145-144.695652-11.130435-222.608696-1.855073-81.623188 9.275362-185.507246 5.565217-228.173913 3.710145V667.826087z" p-id="11028" fill="#ffffff"></path><path d="M333.913043 641.855072h-76.057971c-5.565217 0-9.275362-3.710145-9.275362-9.275362s3.710145-9.275362 9.275362-9.275362H333.913043c5.565217 0 9.275362 3.710145 9.275363 9.275362s-5.565217 9.275362-9.275363 9.275362zM500.869565 588.057971h-92.753623c-5.565217 0-9.275362-3.710145-9.275362-9.275362s3.710145-9.275362 9.275362-9.275363h92.753623c5.565217 0 9.275362 3.710145 9.275363 9.275363s-5.565217 9.275362-9.275363 9.275362z" p-id="11029" fill="#ffffff"></path><path d="M452.637681 636.289855c-5.565217 0-9.275362-3.710145-9.275362-9.275362v-92.753623c0-5.565217 3.710145-9.275362 9.275362-9.275363s9.275362 3.710145 9.275362 9.275363v92.753623c0 5.565217-3.710145 9.275362-9.275362 9.275362z" p-id="11030" fill="#ffffff"></path></svg>