<?xml version="1.0" standalone="no"?><!DOCTYPE svg PUBLIC "-//W3C//DTD SVG 1.1//EN" "http://www.w3.org/Graphics/SVG/1.1/DTD/svg11.dtd"><svg t="1559268711727" class="icon" style="" viewBox="0 0 1024 1024" version="1.1" xmlns="http://www.w3.org/2000/svg" p-id="2192" xmlns:xlink="http://www.w3.org/1999/xlink" width="200" height="200"><defs><style type="text/css"></style></defs><path d="M68.266667 585.955556c-28.444444 0-51.2-22.755556-51.2-51.2 0-187.733333 108.088889-358.4 278.755555-438.044445 22.755556-11.377778 51.2 0 62.577778 22.755556 11.377778 22.755556 0 51.2-22.755556 62.577777-130.844444 68.266667-216.177778 204.8-216.177777 352.711112 0 28.444444-22.755556 51.2-51.2 51.2zM506.311111 1024c-108.088889 0-210.488889-34.133333-295.822222-96.711111-22.755556-17.066667-28.444444-45.511111-11.377778-68.266667 17.066667-22.755556 45.511111-28.444444 68.266667-11.377778 68.266667 51.2 147.911111 79.644444 233.244444 79.644445 79.644444 0 159.288889-22.755556 221.866667-73.955556 22.755556-17.066667 51.2-11.377778 68.266667 11.377778s11.377778 51.2-11.377778 68.266667c-73.955556 56.888889-170.666667 91.022222-273.066667 91.022222zM938.666667 597.333333c-28.444444 0-51.2-22.755556-51.2-51.2v-11.377777c0-142.222222-79.644444-273.066667-204.8-341.333334-22.755556-11.377778-34.133333-39.822222-22.755556-68.266666 11.377778-22.755556 39.822222-34.133333 68.266667-22.755556 159.288889 85.333333 256 250.311111 256 426.666667v11.377777c5.688889 34.133333-17.066667 56.888889-45.511111 56.888889z" fill="#ffffff" p-id="2193"></path><path d="M512 119.466667m-113.777778 0a113.777778 113.777778 0 1 0 227.555556 0 113.777778 113.777778 0 1 0-227.555556 0Z" fill="#ffffff" p-id="2194"></path><path d="M113.777778 728.177778m-113.777778 0a113.777778 113.777778 0 1 0 227.555556 0 113.777778 113.777778 0 1 0-227.555556 0Z" fill="#ffffff" p-id="2195"></path><path d="M910.222222 745.244444m-113.777778 0a113.777778 113.777778 0 1 0 227.555556 0 113.777778 113.777778 0 1 0-227.555556 0Z" fill="#ffffff" p-id="2196"></path></svg>