<?xml version="1.0" standalone="no"?><!DOCTYPE svg PUBLIC "-//W3C//DTD SVG 1.1//EN" "http://www.w3.org/Graphics/SVG/1.1/DTD/svg11.dtd"><svg t="1534850321928" class="icon" style="" viewBox="0 0 1024 1024" version="1.1" xmlns="http://www.w3.org/2000/svg" p-id="2547" xmlns:xlink="http://www.w3.org/1999/xlink" width="200" height="200"><defs><style type="text/css"></style></defs><path d="M806.4 917.333333H174.933333C149.333333 917.333333 128 896 128 870.4V153.6C128 128 149.333333 106.666667 174.933333 106.666667h631.466667C832 106.666667 853.333333 128 853.333333 153.6V640c0 12.8-8.533333 21.333333-21.333333 21.333333s-21.333333-8.533333-21.333333-21.333333V153.6c0-2.133333-2.133333-4.266667-4.266667-4.266667H174.933333c-2.133333 0-4.266667 2.133333-4.266666 4.266667v716.8c0 2.133333 2.133333 4.266667 4.266666 4.266667h631.466667c12.8 0 21.333333 8.533333 21.333333 21.333333s-10.666667 21.333333-21.333333 21.333333z" fill="#ffffff" p-id="2548"></path><path d="M789.333333 836.266667c-6.4 0-10.666667-2.133333-14.933333-6.4l-64-64c-8.533333-8.533333-8.533333-21.333333 0-29.866667s21.333333-8.533333 29.866667 0l64 64c8.533333 8.533333 8.533333 21.333333 0 29.866667-4.266667 4.266667-8.533333 6.4-14.933334 6.4z" fill="#ffffff" p-id="2549"></path><path d="M789.333333 836.266667c-6.4 0-10.666667-2.133333-14.933333-6.4-8.533333-8.533333-8.533333-21.333333 0-29.866667l149.333333-149.333333c8.533333-8.533333 21.333333-8.533333 29.866667 0s8.533333 21.333333 0 29.866666l-149.333333 149.333334c-4.266667 4.266667-8.533333 6.4-14.933334 6.4zM699.733333 384H281.6c-12.8 0-21.333333-8.533333-21.333333-21.333333s8.533333-21.333333 21.333333-21.333334h418.133333c12.8 0 21.333333 8.533333 21.333334 21.333334s-10.666667 21.333333-21.333334 21.333333zM695.466667 642.133333H277.333333c-12.8 0-21.333333-8.533333-21.333333-21.333333s8.533333-21.333333 21.333333-21.333333h418.133334c12.8 0 21.333333 8.533333 21.333333 21.333333s-8.533333 21.333333-21.333333 21.333333zM699.733333 509.866667H281.6c-12.8 0-21.333333-8.533333-21.333333-21.333334s8.533333-21.333333 21.333333-21.333333h418.133333c12.8 0 21.333333 8.533333 21.333334 21.333333s-10.666667 21.333333-21.333334 21.333334z" fill="#ffffff" p-id="2550"></path></svg>