<?xml version="1.0" standalone="no"?><!DOCTYPE svg PUBLIC "-//W3C//DTD SVG 1.1//EN" "http://www.w3.org/Graphics/SVG/1.1/DTD/svg11.dtd"><svg t="1543993806221" class="icon" style="" viewBox="0 0 1034 1024" version="1.1" xmlns="http://www.w3.org/2000/svg" p-id="12495" id="mx_n_1543993806222" xmlns:xlink="http://www.w3.org/1999/xlink" width="201.953125" height="200"><defs><style type="text/css"></style></defs><path d="M0 533c1.357-6.971 2.417-14.015 4.121-20.9 9.839-39.752 32.47-70.189 67.092-91.93 2.44-1.533 4.835-4.177 5.824-6.835 40.34-108.526 110.662-191.733 211.028-249.301 46.157-26.476 95.786-43.775 148.236-52.934 33.09-5.778 66.432-8.146 99.961-6.645 91.43 4.092 175.057 31.832 249.871 84.683 79.953 56.479 136.796 130.971 170.663 222.884 1.301 3.53 2.966 6.228 6.387 8.355 38.826 24.152 62.062 58.855 69.726 103.963 0.211 1.246 0.721 2.44 1.092 3.659v41c-1.723 8.412-3.074 16.92-5.232 25.219-8.667 33.325-25.161 61.517-54.608 80.774-19.781 12.938-41.8 18.568-65.287 18.912-0.634 0.01-1.271-0.18-3.032-0.448 0-8.085 0.176-16.209-0.03-24.323-0.935-36.617-1.974-73.231-2.98-109.847-0.659-23.965-1.373-47.928-1.98-71.895-0.718-28.296-1.309-56.595-2.089-84.889-0.062-2.229-0.869-4.578-1.853-6.619-52.783-109.589-136.663-184.144-252.135-222.56-53.477-17.791-108.662-23.369-164.677-18.193-97.103 8.972-181.184 47.291-251.983 114.394-38.144 36.151-68.124 78.264-90.224 125.943-1.273 2.748-1.969 6.015-2.002 9.051-0.517 47.31-0.839 94.622-1.296 141.933-0.236 24.481-0.643 48.961-0.984 73.441-0.326 23.313-0.663 46.628-1.013 69.941-0.017 1.143-0.204 2.282-0.433 4.705-9.21-1.096-18.332-1.481-27.14-3.346-49.016-10.377-79.672-41.368-95.721-87.6-4.161-11.985-5.57-24.925-8.272-37.42-0.236-1.079-0.682-2.115-1.03-3.172v-30z" fill="#ffffff" p-id="12496"></path><path d="M494 923c-7.189-0.938-14.376-1.894-21.568-2.809-44.237-5.631-85.323-20.245-123.319-43.505-4.136-2.532-7.495-2.799-11.984-0.771-33.132 14.965-67.818 23.196-104.272 24.349-30.586 0.968-59.823-5.12-88.555-14.794-7.056-2.376-14.209-4.467-22.146-6.947 8.367-5.324 15.806-10.654 23.774-15.02 26.099-14.3 43.117-36.637 56.19-62.523 7.913-15.668 14.072-31.984 16.542-49.483 1.295-9.179 0.899-18.036-3.115-26.818-14.649-32.051-23.582-65.781-27.168-100.775-6.343-61.891 2.133-121.733 28.644-178.212 44.609-95.036 117.509-157.241 219.085-184.993 24.327-6.646 49.279-9.56 74.542-9.892 81.24-1.067 153.241 24.492 215.329 76.506 59.163 49.564 97.267 112.682 112.685 188.337 20.12 98.729 1.475 190.212-57.849 271.964-49.638 68.405-116.804 111.245-199.607 128.891-13.131 2.799-26.671 3.672-40.017 5.479-1.417 0.191-2.796 0.672-4.192 1.019C522.667 923 508.333 923 494 923z m-284.399-62.545c1.692 0.272 2.764 0.546 3.847 0.605 42.263 2.325 81.972-7.302 119.532-26.19 8.721-4.386 16.21-4.214 24.305 1.096 61.624 40.418 129.125 55.568 201.919 44.833 63.854-9.417 118.979-37.595 163.438-84.213 71.544-75.018 98.857-164.852 79.713-266.555-17.46-92.751-69.37-162.46-152.756-207.302-60.317-32.436-124.778-40.829-191.743-26.988-65.407 13.518-119.559 46.68-162.596 97.554-43.137 50.992-66.338 110.297-70.179 176.885-2.786 48.309 5.496 94.891 25.492 139.098 7.155 15.816 8.362 32.04 5.687 48.806-5.1 31.963-17.989 60.773-35.902 87.486-3.294 4.912-6.924 9.6-10.757 14.885z" fill="#ffffff" p-id="12497"></path><path d="M380.377 632.934c-25.269-0.002-45.29-20.303-45.311-45.946-0.021-25.623 19.925-46.193 45.002-46.41 25.021-0.216 45.679 20.723 45.728 46.349 0.049 25.342-20.354 46.008-45.419 46.007zM570.934 586.8c0.001 25.799-19.831 46.121-45.022 46.134-25.403 0.013-45.573-20.487-45.567-46.312 0.006-25.266 20.562-46.092 45.46-46.059 25.017 0.035 45.128 20.637 45.129 46.237zM671.897 540.627c25.572 0.862 45.61 22.078 44.704 47.331-0.958 26.699-22.006 46.045-48.918 44.965-23.291-0.935-42.799-23.072-41.809-47.442 1.041-25.585 21.655-45.675 46.023-44.854z" fill="#ffffff" p-id="12498"></path></svg>