<?xml version="1.0" encoding="UTF-8"?>
<svg width="56px" height="68px" viewBox="0 0 56 68" version="1.1" xmlns="http://www.w3.org/2000/svg" xmlns:xlink="http://www.w3.org/1999/xlink">
    <!-- Generator: Sketch 51.2 (57519) - http://www.bohemiancoding.com/sketch -->
    <title>dhc_busy</title>
    <desc>Created with Sketch.</desc>
    <defs>
        <filter x="-17.7%" y="-10.7%" width="135.4%" height="127.9%" filterUnits="objectBoundingBox" id="filter-1">
            <feMorphology radius="1.5" operator="dilate" in="SourceAlpha" result="shadowSpreadOuter1"></feMorphology>
            <feOffset dx="0" dy="2" in="shadowSpreadOuter1" result="shadowOffsetOuter1"></feOffset>
            <feGaussianBlur stdDeviation="2" in="shadowOffsetOuter1" result="shadowBlurOuter1"></feGaussianBlur>
            <feComposite in="shadowBlurOuter1" in2="SourceAlpha" operator="out" result="shadowBlurOuter1"></feComposite>
            <feColorMatrix values="0 0 0 0 0   0 0 0 0 0   0 0 0 0 0  0 0 0 0.5 0" type="matrix" in="shadowBlurOuter1" result="shadowMatrixOuter1"></feColorMatrix>
            <feMerge>
                <feMergeNode in="shadowMatrixOuter1"></feMergeNode>
                <feMergeNode in="SourceGraphic"></feMergeNode>
            </feMerge>
        </filter>
    </defs>
    <g id="图标" stroke="none" stroke-width="1" fill="none" fill-rule="evenodd">
        <g id="01企业货主网-02在途监控-copy" transform="translate(-390.000000, -238.000000)">
            <g id="dhc_busy" filter="url(#filter-1)" transform="translate(394.000000, 240.000000)">
                <path d="M24,60.1313892 C40,48.6454263 48,36.6016299 48,24 C48,10.745166 37.254834,0 24,0 C10.745166,0 6.47880858e-16,10.745166 0,24 C0,36.0452473 8,48.0890437 24,60.1313892 Z" id="Oval" fill="#FF300D"></path>
                <circle id="Oval-2" fill="#FFFFFF" cx="24" cy="23" r="20"></circle>
                <g id="卡车" transform="translate(9.000000, 13.000000)">
                    <path d="M0.0150618762,13.4869461 L22.313992,13.4869461 L22.3306467,0.59493014 C22.3306467,0.272259481 22.0707385,0.0107025948 21.7508623,0.0107025948 L0.593616766,0.0107025948 C0.273852295,0.0107025948 0.0150339321,0.272287425 0.0150618762,0.59493014 L0.0150618762,13.4869461 Z" id="Shape" fill="#FF300D" fill-rule="nonzero"></path>
                    <text id="4.2" font-family="PingFangSC-Regular, PingFang SC" font-size="8" font-weight="normal" fill="#FFFFFF">
                        <tspan x="5.144" y="10">4.2</tspan>
                    </text>
                    <path d="M22.1310699,17.7194172 C22.1305669,17.6958323 22.1277725,17.6723034 22.1277725,17.6476846 C22.1277725,17.4739561 22.2316687,16.7401996 22.2878084,16.5508224 C22.501022,15.8293892 23.4614611,13.7948623 25.9480679,13.7948623 C28.4810619,13.7948623 29.3955888,15.8293613 29.6088303,16.5508224 C29.6643273,16.7402275 29.7683074,17.473984 29.7683074,17.6476846 C29.7683074,17.6723034 29.765485,17.6958323 29.7643952,17.7194172 L30.3986427,17.7194172 C30.718491,17.7194172 30.9778124,17.4583633 30.9778124,17.1356926 L30.9778124,14.1344391 C30.9778124,13.986 30.9196048,13.8509182 30.8296527,13.7478603 L30.8296527,9.38273852 C30.8296527,6.00619561 28.6215369,4.26077844 28.5271697,4.18795609 C28.4256208,4.1096008 28.3022754,4.0676008 28.1751297,4.0676008 L23.5163992,4.0676008 C23.3447944,4.0676008 23.1926667,4.14436327 23.0865908,4.26421557 L23.0865908,13.8768782 C23.0865908,14.1125589 22.9341836,14.2655808 22.7006267,14.2655808 L7.63386427,14.2655808 C9.4929022,14.9846667 9.62183633,16.8868224 9.62295409,17.7194172 L22.1310699,17.7194172 Z M24.0955689,5.23605589 L27.9606866,5.23605589 C28.3460639,5.59287425 29.4016806,6.73724152 29.6261277,8.65518563 L24.0955689,8.65518563 L24.0955689,5.23605589 Z" id="Shape" fill="#FF300D" fill-rule="nonzero"></path>
                    <path d="M0.190251497,17.1358603 C0.190251497,17.4585868 0.448958084,17.7195848 0.768806387,17.7195848 L1.99057884,17.7195848 C1.76017964,15.9183633 3.38742116,14.2752495 4.2839521,14.1171697 C3.55304591,14.1171417 0.1919002,14.1171417 0.1919002,14.1171417 C0.1919002,14.1227305 0.190251497,17.1358603 0.190251497,17.1358603 Z" id="Shape" fill="#FF300D" fill-rule="nonzero"></path>
                    <path d="M25.9481238,14.5740838 C27.6460918,14.5740838 29.0225629,15.9506108 29.0225629,17.6485509 C29.0225629,19.3464631 27.6460639,20.7229621 25.9481238,20.7229621 C24.2501836,20.7229621 22.8737126,19.3464351 22.8737126,17.6485509 C22.8737126,15.9505828 24.2501836,14.5740838 25.9481238,14.5740838 Z M24.5276407,17.6485788 C24.5276407,18.4330539 25.1636208,19.068978 25.9481238,19.068978 C26.7326267,19.068978 27.3685509,18.4330259 27.3685509,17.6485788 C27.3685509,16.8640479 26.7325988,16.2281238 25.9481238,16.2281238 C25.1635928,16.2281238 24.5276407,16.8640479 24.5276407,17.6485788 Z" id="Shape" fill="#FF300D" fill-rule="nonzero"></path>
                    <path d="M5.83373253,14.5740838 C7.5317006,14.5740838 8.90814371,15.9506108 8.90814371,17.6485509 C8.90814371,19.3464631 7.53167265,20.7229621 5.83373253,20.7229621 C4.13579242,20.7229621 2.75929341,19.3464351 2.75929341,17.6485509 C2.75929341,15.9505828 4.13579242,14.5740838 5.83373253,14.5740838 Z M4.41322156,17.6485788 C4.41322156,18.4330539 5.04917365,19.068978 5.83367665,19.068978 C6.61817964,19.068978 7.25413174,18.4330259 7.25413174,17.6485788 C7.25413174,16.8640479 6.61817964,16.2281238 5.83367665,16.2281238 C5.04917365,16.2281238 4.41322156,16.8640479 4.41322156,17.6485788 Z" id="Shape" fill="#FF300D" fill-rule="nonzero"></path>
                </g>
            </g>
        </g>
    </g>
</svg>