<?xml version="1.0" encoding="UTF-8"?>
<svg width="56px" height="68px" viewBox="0 0 56 68" version="1.1" xmlns="http://www.w3.org/2000/svg" xmlns:xlink="http://www.w3.org/1999/xlink">
    <!-- Generator: Sketch 51.2 (57519) - http://www.bohemiancoding.com/sketch -->
    <title>xhc_lose</title>
    <desc>Created with Sketch.</desc>
    <defs>
        <filter x="-17.7%" y="-10.7%" width="135.4%" height="127.9%" filterUnits="objectBoundingBox" id="filter-1">
            <feMorphology radius="1.5" operator="dilate" in="SourceAlpha" result="shadowSpreadOuter1"></feMorphology>
            <feOffset dx="0" dy="2" in="shadowSpreadOuter1" result="shadowOffsetOuter1"></feOffset>
            <feGaussianBlur stdDeviation="2" in="shadowOffsetOuter1" result="shadowBlurOuter1"></feGaussianBlur>
            <feComposite in="shadowBlurOuter1" in2="SourceAlpha" operator="out" result="shadowBlurOuter1"></feComposite>
            <feColorMatrix values="0 0 0 0 0   0 0 0 0 0   0 0 0 0 0  0 0 0 0.5 0" type="matrix" in="shadowBlurOuter1" result="shadowMatrixOuter1"></feColorMatrix>
            <feMerge>
                <feMergeNode in="shadowMatrixOuter1"></feMergeNode>
                <feMergeNode in="SourceGraphic"></feMergeNode>
            </feMerge>
        </filter>
    </defs>
    <g id="图标" stroke="none" stroke-width="1" fill="none" fill-rule="evenodd">
        <g id="01企业货主网-02在途监控-copy" transform="translate(-452.000000, -305.000000)">
            <g id="xhc_lose" filter="url(#filter-1)" transform="translate(456.000000, 307.000000)">
                <path d="M24,60.1313892 C40,48.6454263 48,36.6016299 48,24 C48,10.745166 37.254834,0 24,0 C10.745166,0 6.47880858e-16,10.745166 0,24 C0,36.0452473 8,48.0890437 24,60.1313892 Z" id="Oval" fill="#CCCCCC"></path>
                <circle id="Oval-2" fill="#FFFFFF" cx="24" cy="23" r="20"></circle>
                <g id="卡车" transform="translate(12.000000, 15.000000)" fill="#CCCCCC" fill-rule="nonzero">
                    <path d="M0.0150618762,10.4869461 L16.313992,10.4869461 L16.3306467,0.59493014 C16.3306467,0.272259481 16.0707385,0.0107025948 15.7508623,0.0107025948 L0.593616766,0.0107025948 C0.273852295,0.0107025948 0.0150339321,0.272287425 0.0150618762,0.59493014 L0.0150618762,10.4869461 Z" id="Shape"></path>
                    <path d="M16.1310699,14.7194172 C16.1305669,14.6958323 16.1277725,14.6723034 16.1277725,14.6476846 C16.1277725,14.4739561 16.2316687,13.7401996 16.2878084,13.5508224 C16.501022,12.8293892 17.4614611,10.7948623 19.9480679,10.7948623 C22.4810619,10.7948623 23.3955888,12.8293613 23.6088303,13.5508224 C23.6643273,13.7402275 23.7683074,14.473984 23.7683074,14.6476846 C23.7683074,14.6723034 23.765485,14.6958323 23.7643952,14.7194172 L24.3986427,14.7194172 C24.718491,14.7194172 24.9778124,14.4583633 24.9778124,14.1356926 L24.9778124,11.1344391 C24.9778124,10.986 24.9196048,10.8509182 24.8296527,10.7478603 L24.8296527,9.38273852 C24.8296527,6.00619561 22.6215369,4.26077844 22.5271697,4.18795609 C22.4256208,4.1096008 22.3022754,4.0676008 22.1751297,4.0676008 L17.5163992,4.0676008 C17.3447944,4.0676008 17.1926667,4.14436327 17.0865908,4.26421557 L17.0865908,10.8768782 C17.0865908,11.1125589 16.9341836,11.2655808 16.7006267,11.2655808 L9.63386427,11.2655808 C11.4929022,11.9846667 11.6218363,13.8868224 11.6229541,14.7194172 L16.1310699,14.7194172 Z M18.0955689,5.23605589 L21.9606866,5.23605589 C22.3460639,5.59287425 23.4016806,6.73724152 23.6261277,8.65518563 L18.0955689,8.65518563 L18.0955689,5.23605589 Z" id="Shape"></path>
                    <path d="M0.190251497,14.1358603 C0.190251497,14.4585868 0.448958084,14.7195848 0.768806387,14.7195848 L3.99057884,14.7195848 C3.76017964,12.9183633 5.38742116,11.2752495 6.2839521,11.1171417 C5.55304591,11.1171417 0.1919002,11.1171417 0.1919002,11.1171417 C0.1919002,11.1227305 0.190251497,14.1358603 0.190251497,14.1358603 Z" id="Shape"></path>
                    <path d="M19.9481238,11.5740838 C21.6460918,11.5740838 23.0225629,12.9506108 23.0225629,14.6485509 C23.0225629,16.3464631 21.6460639,17.7229621 19.9481238,17.7229621 C18.2501836,17.7229621 16.8737126,16.3464351 16.8737126,14.6485509 C16.8737126,12.9505828 18.2501836,11.5740838 19.9481238,11.5740838 Z M18.5276407,14.6485788 C18.5276407,15.4330539 19.1636208,16.068978 19.9481238,16.068978 C20.7326267,16.068978 21.3685509,15.4330259 21.3685509,14.6485788 C21.3685509,13.8640479 20.7325988,13.2281238 19.9481238,13.2281238 C19.1635928,13.2281238 18.5276407,13.8640479 18.5276407,14.6485788 Z" id="Shape"></path>
                    <path d="M7.83373253,11.5740838 C9.5317006,11.5740838 10.9081437,12.9506108 10.9081437,14.6485509 C10.9081437,16.3464631 9.53167265,17.7229621 7.83373253,17.7229621 C6.13579242,17.7229621 4.75929341,16.3464351 4.75929341,14.6485509 C4.75929341,12.9505828 6.13579242,11.5740838 7.83373253,11.5740838 Z M6.41322156,14.6485788 C6.41322156,15.4330539 7.04917365,16.068978 7.83367665,16.068978 C8.61817964,16.068978 9.25413174,15.4330259 9.25413174,14.6485788 C9.25413174,13.8640479 8.61817964,13.2281238 7.83367665,13.2281238 C7.04917365,13.2281238 6.41322156,13.8640479 6.41322156,14.6485788 Z" id="Shape"></path>
                </g>
            </g>
        </g>
    </g>
</svg>